<svg xmlns="http://www.w3.org/2000/svg" xmlns:xlink="http://www.w3.org/1999/xlink" width="123.667" height="131.428" viewBox="0 0 123.667 131.428"><defs><linearGradient id="a" y1="0.158" x2="0.842" y2="0.888" gradientUnits="objectBoundingBox"><stop offset="0" stop-color="#677471" stop-opacity="0.655"/><stop offset="1" stop-opacity="0.443"/></linearGradient><linearGradient id="b" x1="1" y1="0.5" x2="0" y2="1" gradientUnits="objectBoundingBox"><stop offset="0" stop-color="#d7d7d8"/><stop offset="0.689" stop-color="#518f8b"/><stop offset="1" stop-color="#a99bd1"/></linearGradient><filter id="c" x="39.725" y="0" width="63.225" height="73.202" filterUnits="userSpaceOnUse"><feOffset dx="10" dy="20" input="SourceAlpha"/><feGaussianBlur stdDeviation="3" result="d"/><feFlood flood-opacity="0.102"/><feComposite operator="in" in2="d"/><feComposite in="SourceGraphic"/></filter><filter id="e" x="39.725" y="0" width="63.225" height="73.202" filterUnits="userSpaceOnUse"><feOffset dy="3" input="SourceAlpha"/><feGaussianBlur stdDeviation="3" result="f"/><feFlood flood-color="#fff" flood-opacity="0.161" result="g"/><feComposite operator="out" in="SourceGraphic" in2="f"/><feComposite operator="in" in="g"/><feComposite operator="in" in2="SourceGraphic"/></filter><linearGradient id="h" x1="1" x2="0.097" y2="1" gradientUnits="objectBoundingBox"><stop offset="0" stop-color="#c7c7ef" stop-opacity="0.306"/><stop offset="1" stop-color="#d6e1ff"/></linearGradient><filter id="i"><feOffset dy="2" input="SourceAlpha"/><feGaussianBlur stdDeviation="3" result="j"/><feFlood flood-color="#fff" flood-opacity="0.161" result="k"/><feComposite operator="out" in="SourceGraphic" in2="j"/><feComposite operator="in" in="k"/><feComposite operator="in" in2="SourceGraphic"/></filter><filter id="m"><feOffset dy="2" input="SourceAlpha"/><feGaussianBlur stdDeviation="3" result="n"/><feFlood flood-color="#fff" flood-opacity="0.161" result="o"/><feComposite operator="out" in="SourceGraphic" in2="n"/><feComposite operator="in" in="o"/><feComposite operator="in" in2="SourceGraphic"/></filter><filter id="q"><feOffset dy="2" input="SourceAlpha"/><feGaussianBlur stdDeviation="3" result="r"/><feFlood flood-color="#fff" flood-opacity="0.161" result="s"/><feComposite operator="out" in="SourceGraphic" in2="r"/><feComposite operator="in" in="s"/><feComposite operator="in" in2="SourceGraphic"/></filter><linearGradient id="t" x1="1" y1="0.5" x2="0" y2="1" gradientUnits="objectBoundingBox"><stop offset="0" stop-color="#d7d7d8"/><stop offset="0.689" stop-color="#518f8b"/><stop offset="1" stop-color="#78739f"/></linearGradient><filter id="u"><feOffset dy="3" input="SourceAlpha"/><feGaussianBlur stdDeviation="3" result="v"/><feFlood flood-color="#fff" flood-opacity="0.161" result="w"/><feComposite operator="out" in="SourceGraphic" in2="v"/><feComposite operator="in" in="w"/><feComposite operator="in" in2="SourceGraphic"/></filter><filter id="y"><feOffset dy="2" input="SourceAlpha"/><feGaussianBlur stdDeviation="3" result="z"/><feFlood flood-color="#fff" flood-opacity="0.161" result="aa"/><feComposite operator="out" in="SourceGraphic" in2="z"/><feComposite operator="in" in="aa"/><feComposite operator="in" in2="SourceGraphic"/></filter><filter id="ac"><feOffset dy="3" input="SourceAlpha"/><feGaussianBlur stdDeviation="3" result="ad"/><feFlood flood-color="#fff" flood-opacity="0.161" result="ae"/><feComposite operator="out" in="SourceGraphic" in2="ad"/><feComposite operator="in" in="ae"/><feComposite operator="in" in2="SourceGraphic"/></filter><filter id="ag"><feOffset dy="2" input="SourceAlpha"/><feGaussianBlur stdDeviation="3" result="ah"/><feFlood flood-color="#fff" flood-opacity="0.161" result="ai"/><feComposite operator="out" in="SourceGraphic" in2="ah"/><feComposite operator="in" in="ai"/><feComposite operator="in" in2="SourceGraphic"/></filter></defs><g transform="translate(0.503)"><g transform="translate(0 17.042)"><path d="M-6202.833,1241.322" transform="translate(6325.501 -1205.425)" stroke="#000" stroke-width="3" fill="url(#a)"/></g><g data-type="innerShadowGroup"><g transform="matrix(1, 0, 0, 1, -0.5, 0)" filter="url(#c)"><path d="M19.8,36a17.585,17.585,0,0,1-5.845-.4A17.711,17.711,0,0,1,3.525,28.731,17.673,17.673,0,0,1,.017,17.147a17.7,17.7,0,0,1,1.346-6.02c.065-.157.117-.32.175-.48A20.83,20.83,0,0,1,4.231,6.428,17.7,17.7,0,0,1,16.449.072,18.036,18.036,0,0,1,20.611,35.89C20.341,35.927,20.07,35.96,19.8,36Z" transform="matrix(0.97, 0.26, -0.26, 0.97, 49.06, 0)" fill="url(#b)"/></g><g transform="matrix(1, 0, 0, 1, -0.5, 0)" filter="url(#e)"><path d="M19.8,36a17.585,17.585,0,0,1-5.845-.4A17.711,17.711,0,0,1,3.525,28.731,17.673,17.673,0,0,1,.017,17.147a17.7,17.7,0,0,1,1.346-6.02c.065-.157.117-.32.175-.48A20.83,20.83,0,0,1,4.231,6.428,17.7,17.7,0,0,1,16.449.072,18.036,18.036,0,0,1,20.611,35.89C20.341,35.927,20.07,35.96,19.8,36Z" transform="matrix(0.97, 0.26, -0.26, 0.97, 49.06, 0)" fill="#fff"/></g></g><g data-type="innerShadowGroup"><path d="M20.932,0c0,1.633,0,3.265-.013,4.9-.011,1.649-.452,2.315-2.009,2.841-.6.2-.606.6-.605,1.077q0,6.082,0,12.163,0,9.837-.011,19.674c0,.674.091,1.092.877,1.277a2.331,2.331,0,0,1,1.743,2.464c.016,1.741.012,3.483.017,5.224H0c0-1.66,0-3.32.013-4.98A2.427,2.427,0,0,1,2,41.859c.68-.206.622-.647.622-1.133q0-11.961,0-23.921c0-2.667-.012-5.334.01-8,0-.6-.15-.922-.8-1.085A2.352,2.352,0,0,1,.017,5.226C0,3.484,0,1.742,0,0Z" transform="translate(71.74 113.134) rotate(180)" fill="url(#h)"/><g transform="matrix(1, 0, 0, 1, -0.5, 0)" filter="url(#i)"><path d="M20.932,0c0,1.633,0,3.265-.013,4.9-.011,1.649-.452,2.315-2.009,2.841-.6.2-.606.6-.605,1.077q0,6.082,0,12.163,0,9.837-.011,19.674c0,.674.091,1.092.877,1.277a2.331,2.331,0,0,1,1.743,2.464c.016,1.741.012,3.483.017,5.224H0c0-1.66,0-3.32.013-4.98A2.427,2.427,0,0,1,2,41.859c.68-.206.622-.647.622-1.133q0-11.961,0-23.921c0-2.667-.012-5.334.01-8,0-.6-.15-.922-.8-1.085A2.352,2.352,0,0,1,.017,5.226C0,3.484,0,1.742,0,0Z" transform="translate(72.24 113.13) rotate(180)" fill="#fff"/></g><path d="M20.932,0c0,1.633,0,3.265-.013,4.9-.011,1.649-.452,2.315-2.009,2.841-.6.2-.606.6-.605,1.077q0,6.082,0,12.163,0,9.837-.011,19.674c0,.674.091,1.092.877,1.277a2.331,2.331,0,0,1,1.743,2.464c.016,1.741.012,3.483.017,5.224H0c0-1.66,0-3.32.013-4.98A2.427,2.427,0,0,1,2,41.859c.68-.206.622-.647.622-1.133q0-11.961,0-23.921c0-2.667-.012-5.334.01-8,0-.6-.15-.922-.8-1.085A2.352,2.352,0,0,1,.017,5.226C0,3.484,0,1.742,0,0Z" transform="translate(71.74 113.134) rotate(180)" fill="none" stroke="rgba(0,0,0,0)" stroke-miterlimit="10" stroke-width="1"/></g><g data-type="innerShadowGroup"><path d="M0,49.523c.006-1.67,0-3.34.018-5.009a2.357,2.357,0,0,1,1.969-2.646c.6-.182.614-.575.613-1.053q-.006-5.333,0-10.665c0-6.948-.008-13.9.015-20.845,0-.723-.17-1.117-.923-1.332A2.221,2.221,0,0,1,.018,5.594C0,3.871.006,2.147,0,.424c.224-.466.67-.392,1.056-.4C2.615-.015,4.172.006,5.73.006Q12.5,0,19.263.012a2.726,2.726,0,0,1,1.493.207,1.916,1.916,0,0,1,.339,1.3c.017,1.345,0,2.69.007,4.035a2.825,2.825,0,0,1-1.563,2.712A1.827,1.827,0,0,0,18.513,10.1q.01,14.888,0,29.777a1.848,1.848,0,0,0,1.1,1.884,2.552,2.552,0,0,1,1.445,2.275,44.825,44.825,0,0,1,.015,4.839,1.471,1.471,0,0,1-.281.83,1.056,1.056,0,0,1-.759.217q-9.567.059-19.133,0C.555,49.919.176,49.93,0,49.523Z" transform="translate(105.253 113.199) rotate(180)" fill="url(#h)"/><g transform="matrix(1, 0, 0, 1, -0.5, 0)" filter="url(#m)"><path d="M0,49.523c.006-1.67,0-3.34.018-5.009a2.357,2.357,0,0,1,1.969-2.646c.6-.182.614-.575.613-1.053q-.006-5.333,0-10.665c0-6.948-.008-13.9.015-20.845,0-.723-.17-1.117-.923-1.332A2.221,2.221,0,0,1,.018,5.594C0,3.871.006,2.147,0,.424c.224-.466.67-.392,1.056-.4C2.615-.015,4.172.006,5.73.006Q12.5,0,19.263.012a2.726,2.726,0,0,1,1.493.207,1.916,1.916,0,0,1,.339,1.3c.017,1.345,0,2.69.007,4.035a2.825,2.825,0,0,1-1.563,2.712A1.827,1.827,0,0,0,18.513,10.1q.01,14.888,0,29.777a1.848,1.848,0,0,0,1.1,1.884,2.552,2.552,0,0,1,1.445,2.275,44.825,44.825,0,0,1,.015,4.839,1.471,1.471,0,0,1-.281.83,1.056,1.056,0,0,1-.759.217q-9.567.059-19.133,0C.555,49.919.176,49.93,0,49.523Z" transform="translate(105.76 113.2) rotate(180)" fill="#fff"/></g><path d="M0,49.523c.006-1.67,0-3.34.018-5.009a2.357,2.357,0,0,1,1.969-2.646c.6-.182.614-.575.613-1.053q-.006-5.333,0-10.665c0-6.948-.008-13.9.015-20.845,0-.723-.17-1.117-.923-1.332A2.221,2.221,0,0,1,.018,5.594C0,3.871.006,2.147,0,.424c.224-.466.67-.392,1.056-.4C2.615-.015,4.172.006,5.73.006Q12.5,0,19.263.012a2.726,2.726,0,0,1,1.493.207,1.916,1.916,0,0,1,.339,1.3c.017,1.345,0,2.69.007,4.035a2.825,2.825,0,0,1-1.563,2.712A1.827,1.827,0,0,0,18.513,10.1q.01,14.888,0,29.777a1.848,1.848,0,0,0,1.1,1.884,2.552,2.552,0,0,1,1.445,2.275,44.825,44.825,0,0,1,.015,4.839,1.471,1.471,0,0,1-.281.83,1.056,1.056,0,0,1-.759.217q-9.567.059-19.133,0C.555,49.919.176,49.93,0,49.523Z" transform="translate(105.253 113.199) rotate(180)" fill="none" stroke="rgba(0,0,0,0)" stroke-miterlimit="10" stroke-width="1"/></g><g data-type="innerShadowGroup"><path d="M21.12.426c-.006,1.669,0,3.339-.019,5.008a2.363,2.363,0,0,1-1.967,2.648c-.542.166-.617.5-.616.969.008,2.477,0,4.954,0,7.432q0,12.036-.013,24.072c0,.727.113,1.182.926,1.4A2.308,2.308,0,0,1,21.1,44.436c.03,1.7.016,3.392.021,5.089-.225.466-.671.392-1.056.4-1.557.037-3.115.016-4.672.016q-6.767,0-13.534-.006A2.717,2.717,0,0,1,.364,49.73a1.914,1.914,0,0,1-.339-1.3c-.018-1.345,0-2.691-.007-4.037a2.825,2.825,0,0,1,1.565-2.711,1.828,1.828,0,0,0,1.023-1.839q-.01-14.894,0-29.789a1.832,1.832,0,0,0-1.1-1.879A2.556,2.556,0,0,1,.045,5.837c-.077-1.5-.038-3.013-.014-4.52A1.831,1.831,0,0,1,.331.246a1.058,1.058,0,0,1,.76-.218q9.567-.059,19.133,0C20.565.029,20.944.019,21.12.426Z" transform="translate(38.415 113.2) rotate(180)" fill="url(#h)"/><g transform="matrix(1, 0, 0, 1, -0.5, 0)" filter="url(#q)"><path d="M21.12.426c-.006,1.669,0,3.339-.019,5.008a2.363,2.363,0,0,1-1.967,2.648c-.542.166-.617.5-.616.969.008,2.477,0,4.954,0,7.432q0,12.036-.013,24.072c0,.727.113,1.182.926,1.4A2.308,2.308,0,0,1,21.1,44.436c.03,1.7.016,3.392.021,5.089-.225.466-.671.392-1.056.4-1.557.037-3.115.016-4.672.016q-6.767,0-13.534-.006A2.717,2.717,0,0,1,.364,49.73a1.914,1.914,0,0,1-.339-1.3c-.018-1.345,0-2.691-.007-4.037a2.825,2.825,0,0,1,1.565-2.711,1.828,1.828,0,0,0,1.023-1.839q-.01-14.894,0-29.789a1.832,1.832,0,0,0-1.1-1.879A2.556,2.556,0,0,1,.045,5.837c-.077-1.5-.038-3.013-.014-4.52A1.831,1.831,0,0,1,.331.246a1.058,1.058,0,0,1,.76-.218q9.567-.059,19.133,0C20.565.029,20.944.019,21.12.426Z" transform="translate(38.92 113.2) rotate(180)" fill="#fff"/></g><path d="M21.12.426c-.006,1.669,0,3.339-.019,5.008a2.363,2.363,0,0,1-1.967,2.648c-.542.166-.617.5-.616.969.008,2.477,0,4.954,0,7.432q0,12.036-.013,24.072c0,.727.113,1.182.926,1.4A2.308,2.308,0,0,1,21.1,44.436c.03,1.7.016,3.392.021,5.089-.225.466-.671.392-1.056.4-1.557.037-3.115.016-4.672.016q-6.767,0-13.534-.006A2.717,2.717,0,0,1,.364,49.73a1.914,1.914,0,0,1-.339-1.3c-.018-1.345,0-2.691-.007-4.037a2.825,2.825,0,0,1,1.565-2.711,1.828,1.828,0,0,0,1.023-1.839q-.01-14.894,0-29.789a1.832,1.832,0,0,0-1.1-1.879A2.556,2.556,0,0,1,.045,5.837c-.077-1.5-.038-3.013-.014-4.52A1.831,1.831,0,0,1,.331.246a1.058,1.058,0,0,1,.76-.218q9.567-.059,19.133,0C20.565.029,20.944.019,21.12.426Z" transform="translate(38.415 113.2) rotate(180)" fill="none" stroke="rgba(0,0,0,0)" stroke-miterlimit="10" stroke-width="1"/></g><g data-type="innerShadowGroup"><path d="M-6899.054,1607.025a2.508,2.508,0,0,0-2.824,2.838c-.011,1.64-.007,3.28-.01,4.92h103.46c0-1.667.005-3.333-.011-5a2.476,2.476,0,0,0-2.742-2.755c-1.666-.019-3.332-.017-5-.024C-6813.084,1607-6897.414,1607.017-6899.054,1607.025Z" transform="translate(6911.433 -1494.2)" fill="url(#t)"/><g transform="matrix(1, 0, 0, 1, -0.5, 0)" filter="url(#u)"><path d="M-6899.054,1607.025a2.508,2.508,0,0,0-2.824,2.838c-.011,1.64-.007,3.28-.01,4.92h103.46c0-1.667.005-3.333-.011-5a2.476,2.476,0,0,0-2.742-2.755c-1.666-.019-3.332-.017-5-.024C-6813.084,1607-6897.414,1607.017-6899.054,1607.025Z" transform="translate(6911.94 -1494.2)" fill="#fff"/></g></g><g data-type="innerShadowGroup"><path d="M-6838.6,1654.217c1.7,0,3.394-.009,5.09,0a2.434,2.434,0,0,1,2.659,2.669c.01,2.182.006,4.363,0,6.545,0,1.1-.026,1.126-1.142,1.127q-23.108,0-46.216,0h-70.213c-1.389,0-1.39,0-1.391-1.364,0-2.047-.008-4.094,0-6.141.012-1.934.9-2.822,2.821-2.837,1.643-.013,3.286,0,4.929,0a1.086,1.086,0,0,1,.856-.379c.458-.022.915-.021,1.374-.021h99c.459,0,.917,0,1.374.021A1.088,1.088,0,0,1-6838.6,1654.217Z" transform="translate(6951.604 -1533.635)" fill="url(#h)"/><g transform="matrix(1, 0, 0, 1, -0.5, 0)" filter="url(#y)"><path d="M-6838.6,1654.217c1.7,0,3.394-.009,5.09,0a2.434,2.434,0,0,1,2.659,2.669c.01,2.182.006,4.363,0,6.545,0,1.1-.026,1.126-1.142,1.127q-23.108,0-46.216,0h-70.213c-1.389,0-1.39,0-1.391-1.364,0-2.047-.008-4.094,0-6.141.012-1.934.9-2.822,2.821-2.837,1.643-.013,3.286,0,4.929,0a1.086,1.086,0,0,1,.856-.379c.458-.022.915-.021,1.374-.021h99c.459,0,.917,0,1.374.021A1.088,1.088,0,0,1-6838.6,1654.217Z" transform="translate(6952.11 -1533.63)" fill="#fff"/></g><path d="M-6838.6,1654.217c1.7,0,3.394-.009,5.09,0a2.434,2.434,0,0,1,2.659,2.669c.01,2.182.006,4.363,0,6.545,0,1.1-.026,1.126-1.142,1.127q-23.108,0-46.216,0h-70.213c-1.389,0-1.39,0-1.391-1.364,0-2.047-.008-4.094,0-6.141.012-1.934.9-2.822,2.821-2.837,1.643-.013,3.286,0,4.929,0a1.086,1.086,0,0,1,.856-.379c.458-.022.915-.021,1.374-.021h99c.459,0,.917,0,1.374.021A1.088,1.088,0,0,1-6838.6,1654.217Z" transform="translate(6951.604 -1533.635)" fill="none" stroke="rgba(0,0,0,0)" stroke-miterlimit="10" stroke-width="1"/></g><g data-type="innerShadowGroup"><path d="M-6806.184,1256.754c-6.906,0-91.235.014-92.875.021a2.508,2.508,0,0,0-2.824,2.838c-.011,1.64-.007,3.28-.009,4.92h103.458c0-1.639,0-3.279-.009-4.918a2.507,2.507,0,0,0-2.824-2.838C-6802.906,1256.763-6804.545,1256.761-6806.184,1256.754Z" transform="translate(6911.436 -1201.018)" fill="url(#t)"/><g transform="matrix(1, 0, 0, 1, -0.5, 0)" filter="url(#ac)"><path d="M-6806.184,1256.754c-6.906,0-91.235.014-92.875.021a2.508,2.508,0,0,0-2.824,2.838c-.011,1.64-.007,3.28-.009,4.92h103.458c0-1.639,0-3.279-.009-4.918a2.507,2.507,0,0,0-2.824-2.838C-6802.906,1256.763-6804.545,1256.761-6806.184,1256.754Z" transform="translate(6911.94 -1201.02)" fill="#fff"/></g></g><g data-type="innerShadowGroup"><path d="M-6839.067,1049.646q-14.443-8.65-28.872-17.324c-2.166-1.3-31.229-19.495-31.229-19.495-2.131,1.263-30.463,18.686-32.585,19.961q-8.93,5.364-17.856,10.737-5.226,3.142-10.455,6.277a1.282,1.282,0,0,0-.591,1.89,1.473,1.473,0,0,0,1.409.607q3.959,0,7.918,0a1.085,1.085,0,0,0,.855.379c.458.023.917.021,1.374.021h99c.458,0,.917,0,1.373-.021a1.084,1.084,0,0,0,.856-.379c2.692,0,5.384-.007,8.076,0a1.477,1.477,0,0,0,1.528-1.182C-6838.038,1050.369-6838.486,1049.994-6839.067,1049.646Z" transform="translate(6960.873 -995.786)" fill="url(#h)"/><g transform="matrix(1, 0, 0, 1, -0.5, 0)" filter="url(#ag)"><path d="M-6839.067,1049.646q-14.443-8.65-28.872-17.324c-2.166-1.3-31.229-19.495-31.229-19.495-2.131,1.263-30.463,18.686-32.585,19.961q-8.93,5.364-17.856,10.737-5.226,3.142-10.455,6.277a1.282,1.282,0,0,0-.591,1.89,1.473,1.473,0,0,0,1.409.607q3.959,0,7.918,0a1.085,1.085,0,0,0,.855.379c.458.023.917.021,1.374.021h99c.458,0,.917,0,1.373-.021a1.084,1.084,0,0,0,.856-.379c2.692,0,5.384-.007,8.076,0a1.477,1.477,0,0,0,1.528-1.182C-6838.038,1050.369-6838.486,1049.994-6839.067,1049.646Z" transform="translate(6961.38 -995.79)" fill="#fff"/></g><path d="M-6839.067,1049.646q-14.443-8.65-28.872-17.324c-2.166-1.3-31.229-19.495-31.229-19.495-2.131,1.263-30.463,18.686-32.585,19.961q-8.93,5.364-17.856,10.737-5.226,3.142-10.455,6.277a1.282,1.282,0,0,0-.591,1.89,1.473,1.473,0,0,0,1.409.607q3.959,0,7.918,0a1.085,1.085,0,0,0,.855.379c.458.023.917.021,1.374.021h99c.458,0,.917,0,1.373-.021a1.084,1.084,0,0,0,.856-.379c2.692,0,5.384-.007,8.076,0a1.477,1.477,0,0,0,1.528-1.182C-6838.038,1050.369-6838.486,1049.994-6839.067,1049.646Z" transform="translate(6960.873 -995.786)" fill="none" stroke="rgba(0,0,0,0)" stroke-miterlimit="10" stroke-width="1"/></g></g></svg>