<svg xmlns="http://www.w3.org/2000/svg" xmlns:xlink="http://www.w3.org/1999/xlink" width="128.257" height="86.128" viewBox="0 0 128.257 86.128">
  <defs>
    <linearGradient id="linear-gradient" x1="1" x2="0.097" y2="1" gradientUnits="objectBoundingBox">
      <stop offset="0" stop-color="#494967" stop-opacity="0.306"/>
      <stop offset="1" stop-color="#81899f"/>
    </linearGradient>
    <linearGradient id="linear-gradient-2" x1="1.106" y1="-0.964" x2="-0.123" y2="1.628" gradientUnits="objectBoundingBox">
      <stop offset="0" stop-color="#fff" stop-opacity="0.396"/>
      <stop offset="0.557" stop-color="#518f8b"/>
      <stop offset="1" stop-color="#483c6a"/>
    </linearGradient>
    <filter id="Rectangle_596">
      <feOffset dy="3" input="SourceAlpha"/>
      <feGaussianBlur stdDeviation="3" result="blur"/>
      <feFlood flood-color="#fff" flood-opacity="0.2" result="color"/>
      <feComposite operator="out" in="SourceGraphic" in2="blur"/>
      <feComposite operator="in" in="color"/>
      <feComposite operator="in" in2="SourceGraphic"/>
    </filter>
    <linearGradient id="linear-gradient-3" x1="1.339" y1="-0.321" x2="-0.445" y2="1.856" xlink:href="#linear-gradient-2"/>
    <filter id="Path_2343">
      <feOffset dy="2" input="SourceAlpha"/>
      <feGaussianBlur stdDeviation="1.5" result="blur-2"/>
      <feFlood flood-color="#fff" flood-opacity="0.204" result="color-2"/>
      <feComposite operator="out" in="SourceGraphic" in2="blur-2"/>
      <feComposite operator="in" in="color-2"/>
      <feComposite operator="in" in2="SourceGraphic"/>
    </filter>
    <linearGradient id="linear-gradient-4" x1="1" x2="0.097" y2="1" gradientUnits="objectBoundingBox">
      <stop offset="0" stop-color="#b8b8de" stop-opacity="0.306"/>
      <stop offset="1" stop-color="#bcc5dd"/>
    </linearGradient>
    <filter id="Rectangle_596-2">
      <feOffset dy="3" input="SourceAlpha"/>
      <feGaussianBlur stdDeviation="3" result="blur-3"/>
      <feFlood flood-color="#fff" flood-opacity="0.2" result="color-3"/>
      <feComposite operator="out" in="SourceGraphic" in2="blur-3"/>
      <feComposite operator="in" in="color-3"/>
      <feComposite operator="in" in2="SourceGraphic"/>
    </filter>
    <filter id="Path_2343-2">
      <feOffset dy="2" input="SourceAlpha"/>
      <feGaussianBlur stdDeviation="1.5" result="blur-4"/>
      <feFlood flood-color="#fff" flood-opacity="0.204" result="color-4"/>
      <feComposite operator="out" in="SourceGraphic" in2="blur-4"/>
      <feComposite operator="in" in="color-4"/>
      <feComposite operator="in" in2="SourceGraphic"/>
    </filter>
  </defs>
  <g id="Card">
    <rect id="Rectangle_595" data-name="Rectangle 595" width="93.469" height="64.479" rx="12" transform="translate(0 0)" fill="url(#linear-gradient)"/>
    <g data-type="innerShadowGroup">
      <rect id="Rectangle_596-3" data-name="Rectangle 596" width="93.469" height="10.997" transform="translate(0 13.995)" fill="url(#linear-gradient-2)"/>
      <g transform="matrix(1, 0, 0, 1, 0, 0)" filter="url(#Rectangle_596)">
        <rect id="Rectangle_596-4" data-name="Rectangle 596" width="93.469" height="10.997" transform="translate(0 14)" fill="#fff"/>
      </g>
    </g>
    <g data-type="innerShadowGroup">
      <path id="Path_2343-3" data-name="Path 2343" d="M14.327,7.163H3.582A3.582,3.582,0,0,1,3.582,0H14.327a3.582,3.582,0,0,1,0,7.163Z" transform="translate(14.532 42.85)" fill="url(#linear-gradient-3)"/>
      <g transform="matrix(1, 0, 0, 1, 0, 0)" filter="url(#Path_2343)">
        <path id="Path_2343-4" data-name="Path 2343" d="M14.327,7.163H3.582A3.582,3.582,0,0,1,3.582,0H14.327a3.582,3.582,0,0,1,0,7.163Z" transform="translate(14.53 42.85)" fill="#fff"/>
      </g>
    </g>
  </g>
  <g id="Card-2" data-name="Card" transform="translate(34.288 21.149)">
    <rect id="Rectangle_595-2" data-name="Rectangle 595" width="93.469" height="64.479" rx="12" transform="translate(0 0)" stroke="rgba(0,0,0,0)" stroke-miterlimit="10" stroke-width="1" fill="url(#linear-gradient-4)"/>
    <g data-type="innerShadowGroup">
      <rect id="Rectangle_596-5" data-name="Rectangle 596" width="93.469" height="10.997" transform="translate(0 13.995)" fill="url(#linear-gradient-2)"/>
      <g transform="matrix(1, 0, 0, 1, -34.29, -21.15)" filter="url(#Rectangle_596-2)">
        <rect id="Rectangle_596-6" data-name="Rectangle 596" width="93.469" height="10.997" transform="translate(34.29 35.14)" fill="#fff"/>
      </g>
    </g>
    <g data-type="innerShadowGroup">
      <path id="Path_2343-5" data-name="Path 2343" d="M14.327,7.163H3.582A3.582,3.582,0,0,1,3.582,0H14.327a3.582,3.582,0,0,1,0,7.163Z" transform="translate(14.532 42.85)" fill="url(#linear-gradient-3)"/>
      <g transform="matrix(1, 0, 0, 1, -34.29, -21.15)" filter="url(#Path_2343-2)">
        <path id="Path_2343-6" data-name="Path 2343" d="M14.327,7.163H3.582A3.582,3.582,0,0,1,3.582,0H14.327a3.582,3.582,0,0,1,0,7.163Z" transform="translate(48.82 64)" fill="#fff"/>
      </g>
    </g>
  </g>
</svg>
