<svg xmlns="http://www.w3.org/2000/svg" xmlns:xlink="http://www.w3.org/1999/xlink" width="128.257" height="86.128" viewBox="0 0 128.257 86.128"><defs><linearGradient id="a" x1="1" x2="0.097" y2="1" gradientUnits="objectBoundingBox"><stop offset="0" stop-color="#494967" stop-opacity="0.306"/><stop offset="1" stop-color="#81899f"/></linearGradient><linearGradient id="b" x1="1.106" y1="-0.964" x2="-0.123" y2="1.628" gradientUnits="objectBoundingBox"><stop offset="0" stop-color="#fff" stop-opacity="0.396"/><stop offset="0.557" stop-color="#518f8b"/><stop offset="1" stop-color="#483c6a"/></linearGradient><filter id="c"><feOffset dy="3" input="SourceAlpha"/><feGaussianBlur stdDeviation="3" result="d"/><feFlood flood-color="#fff" flood-opacity="0.2" result="e"/><feComposite operator="out" in="SourceGraphic" in2="d"/><feComposite operator="in" in="e"/><feComposite operator="in" in2="SourceGraphic"/></filter><linearGradient id="f" x1="1.339" y1="-0.321" x2="-0.445" y2="1.856" xlink:href="#b"/><filter id="g"><feOffset dy="2" input="SourceAlpha"/><feGaussianBlur stdDeviation="1.5" result="h"/><feFlood flood-color="#fff" flood-opacity="0.204" result="i"/><feComposite operator="out" in="SourceGraphic" in2="h"/><feComposite operator="in" in="i"/><feComposite operator="in" in2="SourceGraphic"/></filter><linearGradient id="j" x1="1" x2="0.097" y2="1" gradientUnits="objectBoundingBox"><stop offset="0" stop-color="#b8b8de" stop-opacity="0.306"/><stop offset="1" stop-color="#bcc5dd"/></linearGradient><filter id="l"><feOffset dy="3" input="SourceAlpha"/><feGaussianBlur stdDeviation="3" result="m"/><feFlood flood-color="#fff" flood-opacity="0.2" result="n"/><feComposite operator="out" in="SourceGraphic" in2="m"/><feComposite operator="in" in="n"/><feComposite operator="in" in2="SourceGraphic"/></filter><filter id="p"><feOffset dy="2" input="SourceAlpha"/><feGaussianBlur stdDeviation="1.5" result="q"/><feFlood flood-color="#fff" flood-opacity="0.204" result="r"/><feComposite operator="out" in="SourceGraphic" in2="q"/><feComposite operator="in" in="r"/><feComposite operator="in" in2="SourceGraphic"/></filter></defs><rect width="93.469" height="64.479" rx="12" transform="translate(0 0)" fill="url(#a)"/><g data-type="innerShadowGroup"><rect width="93.469" height="10.997" transform="translate(0 13.995)" fill="url(#b)"/><g transform="matrix(1, 0, 0, 1, 0, 0)" filter="url(#c)"><rect width="93.469" height="10.997" transform="translate(0 14)" fill="#fff"/></g></g><g data-type="innerShadowGroup"><path d="M14.327,7.163H3.582A3.582,3.582,0,0,1,3.582,0H14.327a3.582,3.582,0,0,1,0,7.163Z" transform="translate(14.532 42.85)" fill="url(#f)"/><g transform="matrix(1, 0, 0, 1, 0, 0)" filter="url(#g)"><path d="M14.327,7.163H3.582A3.582,3.582,0,0,1,3.582,0H14.327a3.582,3.582,0,0,1,0,7.163Z" transform="translate(14.53 42.85)" fill="#fff"/></g></g><g transform="translate(34.288 21.149)"><rect width="93.469" height="64.479" rx="12" transform="translate(0 0)" stroke="rgba(0,0,0,0)" stroke-miterlimit="10" stroke-width="1" fill="url(#j)"/><g data-type="innerShadowGroup"><rect width="93.469" height="10.997" transform="translate(0 13.995)" fill="url(#b)"/><g transform="matrix(1, 0, 0, 1, -34.29, -21.15)" filter="url(#l)"><rect width="93.469" height="10.997" transform="translate(34.29 35.14)" fill="#fff"/></g></g><g data-type="innerShadowGroup"><path d="M14.327,7.163H3.582A3.582,3.582,0,0,1,3.582,0H14.327a3.582,3.582,0,0,1,0,7.163Z" transform="translate(14.532 42.85)" fill="url(#f)"/><g transform="matrix(1, 0, 0, 1, -34.29, -21.15)" filter="url(#p)"><path d="M14.327,7.163H3.582A3.582,3.582,0,0,1,3.582,0H14.327a3.582,3.582,0,0,1,0,7.163Z" transform="translate(48.82 64)" fill="#fff"/></g></g></g></svg>