<svg xmlns="http://www.w3.org/2000/svg" xmlns:xlink="http://www.w3.org/1999/xlink" width="125.678" height="118.937" viewBox="0 0 125.678 118.937"><defs><linearGradient id="a" x1="1" y1="0.5" x2="0" y2="1" gradientUnits="objectBoundingBox"><stop offset="0" stop-color="#d7d7d8"/><stop offset="0.467" stop-color="#66b1aa"/><stop offset="1" stop-color="#a99bd1"/></linearGradient><linearGradient id="b" x1="1" x2="0.097" y2="1" gradientUnits="objectBoundingBox"><stop offset="0" stop-color="#c7c7ef" stop-opacity="0.306"/><stop offset="1" stop-color="#d6e1ff"/></linearGradient><filter id="c"><feOffset dy="2" input="SourceAlpha"/><feGaussianBlur stdDeviation="3" result="d"/><feFlood flood-color="#fff" flood-opacity="0.361" result="e"/><feComposite operator="out" in="SourceGraphic" in2="d"/><feComposite operator="in" in="e"/><feComposite operator="in" in2="SourceGraphic"/></filter><linearGradient id="f" x1="0.825" y1="0.323" x2="0.195" y2="0.88" gradientUnits="objectBoundingBox"><stop offset="0" stop-color="#f5f5ff"/><stop offset="0.535" stop-color="#6ac7c1"/><stop offset="1" stop-color="#a995e3"/></linearGradient><filter id="g"><feOffset dy="3" input="SourceAlpha"/><feGaussianBlur stdDeviation="3" result="h"/><feFlood flood-color="#fff" flood-opacity="0.675" result="i"/><feComposite operator="out" in="SourceGraphic" in2="h"/><feComposite operator="in" in="i"/><feComposite operator="in" in2="SourceGraphic"/></filter></defs><g transform="translate(0.5)"><path d="M-2169.6,770.85c-.011.414-.283.595-.629.728-1.171.452-2.327.944-3.512,1.355a1.637,1.637,0,0,0-1.062,1.068c-.438,1.157-.9,2.3-1.347,3.457-.136.35-.28.684-.74.682s-.6-.337-.734-.689c-.477-1.239-.972-2.471-1.433-3.716a1.323,1.323,0,0,0-.88-.747q-1.772-.71-3.555-1.4c-.358-.138-.686-.3-.677-.744.009-.418.323-.569.662-.7,1.137-.438,2.259-.92,3.409-1.318a1.78,1.78,0,0,0,1.165-1.18c.421-1.143.891-2.269,1.323-3.408.15-.393.348-.675.819-.647a.987.987,0,0,1,.988.7c.39,1.155.824,2.3,1.184,3.459a1.445,1.445,0,0,0,.927.98c1.164.469,2.322.952,3.488,1.418A.8.8,0,0,1-2169.6,770.85Z" transform="translate(2184.174 -757.258)" stroke="rgba(0,0,0,0)" stroke-miterlimit="10" stroke-width="1" fill="url(#a)"/><g data-type="innerShadowGroup"><path d="M647.343,172.015a54.944,54.944,0,1,0,54.944,54.944A54.944,54.944,0,0,0,647.343,172.015Zm.013,71.36a18.764,18.764,0,1,1,18.764-18.764A18.765,18.765,0,0,1,647.356,243.375Z" transform="translate(-585.906 -163.466)" fill="url(#b)"/><g transform="matrix(1, 0, 0, 1, -0.5, 0)" filter="url(#c)"><path d="M647.343,172.015a54.944,54.944,0,1,0,54.944,54.944A54.944,54.944,0,0,0,647.343,172.015Zm.013,71.36a18.764,18.764,0,1,1,18.764-18.764A18.765,18.765,0,0,1,647.356,243.375Z" transform="translate(-585.41 -163.47)" fill="#fff"/></g><path d="M647.343,172.015a54.944,54.944,0,1,0,54.944,54.944A54.944,54.944,0,0,0,647.343,172.015Zm.013,71.36a18.764,18.764,0,1,1,18.764-18.764A18.765,18.765,0,0,1,647.356,243.375Z" transform="translate(-585.906 -163.466)" fill="none" stroke="rgba(0,0,0,0)" stroke-miterlimit="10" stroke-width="1"/></g><g data-type="innerShadowGroup"><path d="M960.215,152.373c-.005-9.107-.029-31.4-.037-33.44q.011-4.028.02-8.056c0-1.518-.04-1.264,1.272-1.246a63.017,63.017,0,0,1,17.4,2.708,64.407,64.407,0,0,1,45.54,55.421c.122,1.286.254,2.571.258,3.865-.147.134-.329.083-.5.09-14.328.583-28.662.178-42.993.293a5.271,5.271,0,0,1-1.7-.121c-.527-.112-.508-.538-.529-.937A18.856,18.856,0,0,0,962.286,152.9c-.492-.067-.982-.154-1.481-.175C960.559,152.714,960.3,152.681,960.215,152.373Z" transform="translate(-899.494 -109.604)" fill="url(#f)"/><g transform="matrix(1, 0, 0, 1, -0.5, 0)" filter="url(#g)"><path d="M960.215,152.373c-.005-9.107-.029-31.4-.037-33.44q.011-4.028.02-8.056c0-1.518-.04-1.264,1.272-1.246a63.017,63.017,0,0,1,17.4,2.708,64.407,64.407,0,0,1,45.54,55.421c.122,1.286.254,2.571.258,3.865-.147.134-.329.083-.5.09-14.328.583-28.662.178-42.993.293a5.271,5.271,0,0,1-1.7-.121c-.527-.112-.508-.538-.529-.937A18.856,18.856,0,0,0,962.286,152.9c-.492-.067-.982-.154-1.481-.175C960.559,152.714,960.3,152.681,960.215,152.373Z" transform="translate(-898.99 -109.6)" fill="#fff"/></g></g></g></svg>