<svg xmlns="http://www.w3.org/2000/svg" xmlns:xlink="http://www.w3.org/1999/xlink" width="114.64" height="132.748" viewBox="0 0 114.64 132.748"><defs><linearGradient id="a" x1="1" x2="0.097" y2="1" gradientUnits="objectBoundingBox"><stop offset="0" stop-color="#c7c7ef" stop-opacity="0.306"/><stop offset="1" stop-color="#d6e1ff"/></linearGradient><filter id="b"><feOffset dy="2" input="SourceAlpha"/><feGaussianBlur stdDeviation="3" result="c"/><feFlood flood-color="#fff" flood-opacity="0.361" result="d"/><feComposite operator="out" in="SourceGraphic" in2="c"/><feComposite operator="in" in="d"/><feComposite operator="in" in2="SourceGraphic"/></filter><linearGradient id="e" x1="0.658" y1="0.5" x2="0" y2="1" gradientUnits="objectBoundingBox"><stop offset="0" stop-color="#b6b6c3"/><stop offset="0.467" stop-color="#59a09a"/><stop offset="1" stop-color="#a99bd1"/></linearGradient><filter id="f"><feOffset input="SourceAlpha"/><feGaussianBlur stdDeviation="3" result="g"/><feFlood flood-color="#fff" flood-opacity="0.635" result="h"/><feComposite operator="out" in="SourceGraphic" in2="g"/><feComposite operator="in" in="h"/><feComposite operator="in" in2="SourceGraphic"/></filter><filter id="j"><feOffset dy="2" input="SourceAlpha"/><feGaussianBlur stdDeviation="3" result="k"/><feFlood flood-color="#fff" flood-opacity="0.361" result="l"/><feComposite operator="out" in="SourceGraphic" in2="k"/><feComposite operator="in" in="l"/><feComposite operator="in" in2="SourceGraphic"/></filter><filter id="n"><feOffset dy="2" input="SourceAlpha"/><feGaussianBlur stdDeviation="3" result="o"/><feFlood flood-color="#fff" flood-opacity="0.361" result="p"/><feComposite operator="out" in="SourceGraphic" in2="o"/><feComposite operator="in" in="p"/><feComposite operator="in" in2="SourceGraphic"/></filter><filter id="r"><feOffset dy="2" input="SourceAlpha"/><feGaussianBlur stdDeviation="3" result="s"/><feFlood flood-color="#fff" flood-opacity="0.361" result="t"/><feComposite operator="out" in="SourceGraphic" in2="s"/><feComposite operator="in" in="t"/><feComposite operator="in" in2="SourceGraphic"/></filter></defs><g transform="translate(0 0.5)"><g transform="translate(4.682)"><g data-type="innerShadowGroup"><path d="M104.226,20.023C69.85,20.023,59.039,4.065,58.958,3.93a3.823,3.823,0,0,0-6.64,0S41.425,20.023,7.049,20.023A4.3,4.3,0,0,0,3,24.531V64.02c0,41.7,28.789,54.094,45.957,61.577l5.142,2.254a3.454,3.454,0,0,0,3.077,0l5.142-2.254c17.168-7.438,45.957-19.925,45.957-61.577V24.531A4.3,4.3,0,0,0,104.226,20.023Z" transform="translate(-3 -2.002)" fill="url(#a)"/><g transform="matrix(1, 0, 0, 1, -4.68, -0.5)" filter="url(#b)"><path d="M104.226,20.023C69.85,20.023,59.039,4.065,58.958,3.93a3.823,3.823,0,0,0-6.64,0S41.425,20.023,7.049,20.023A4.3,4.3,0,0,0,3,24.531V64.02c0,41.7,28.789,54.094,45.957,61.577l5.142,2.254a3.454,3.454,0,0,0,3.077,0l5.142-2.254c17.168-7.438,45.957-19.925,45.957-61.577V24.531A4.3,4.3,0,0,0,104.226,20.023Z" transform="translate(1.68 -1.5)" fill="#fff"/></g><path d="M104.226,20.023C69.85,20.023,59.039,4.065,58.958,3.93a3.823,3.823,0,0,0-6.64,0S41.425,20.023,7.049,20.023A4.3,4.3,0,0,0,3,24.531V64.02c0,41.7,28.789,54.094,45.957,61.577l5.142,2.254a3.454,3.454,0,0,0,3.077,0l5.142-2.254c17.168-7.438,45.957-19.925,45.957-61.577V24.531A4.3,4.3,0,0,0,104.226,20.023Z" transform="translate(-3 -2.002)" fill="none" stroke="rgba(0,0,0,0)" stroke-miterlimit="10" stroke-width="1"/></g><g transform="translate(33.475 37.243)"><g data-type="innerShadowGroup"><path d="M41.535,18.767h-2.4V13.977a11.977,11.977,0,1,0-23.953,0v4.791h-2.4A4.789,4.789,0,0,0,8,23.558V47.512A4.789,4.789,0,0,0,12.791,52.3H41.535a4.789,4.789,0,0,0,4.791-4.791V23.558A4.789,4.789,0,0,0,41.535,18.767ZM27.163,40.326a4.791,4.791,0,1,1,4.791-4.791A4.789,4.789,0,0,1,27.163,40.326Zm7.426-21.558H19.737V13.977a7.426,7.426,0,1,1,14.851,0Z" transform="translate(-8 -2)" fill="url(#e)"/><g transform="matrix(1, 0, 0, 1, -38.16, -37.74)" filter="url(#f)"><path d="M41.535,18.767h-2.4V13.977a11.977,11.977,0,1,0-23.953,0v4.791h-2.4A4.789,4.789,0,0,0,8,23.558V47.512A4.789,4.789,0,0,0,12.791,52.3H41.535a4.789,4.789,0,0,0,4.791-4.791V23.558A4.789,4.789,0,0,0,41.535,18.767ZM27.163,40.326a4.791,4.791,0,1,1,4.791-4.791A4.789,4.789,0,0,1,27.163,40.326Zm7.426-21.558H19.737V13.977a7.426,7.426,0,1,1,14.851,0Z" transform="translate(30.16 35.74)" fill="#fff"/></g></g></g></g><g transform="translate(0 82.881)"><g transform="translate(0 0)"><g data-type="innerShadowGroup"><path d="M16.845,49.357q-7.844,0-15.691,0c-1.111,0-1.14-.028-1.14-1.13,0-2.749.019-5.5-.012-8.248-.009-.74.246-.989.986-.986q15.852.024,31.7,0c.73,0,1,.24.99.984-.031,2.777-.009,5.554-.012,8.329,0,1.008-.05,1.054-1.055,1.054q-3.943,0-7.887,0ZM.986,36.422c-.737,0-.993-.249-.983-.986q.042-4.2,0-8.412C0,26.281.264,26.044,1,26.046c5.31.022,10.62.012,15.933.01q7.8,0,15.61,0c1.1,0,1.13.03,1.133,1.139,0,2.749-.019,5.5.014,8.248.007.744-.266.981-1,.981Q16.838,36.4.986,36.422Zm.078-12.957c-1,0-1.047-.054-1.05-1.059,0-2.777.019-5.551-.012-8.329-.009-.749.265-.993.993-.979,1.834.036,3.668.012,5.5.012q13,0,26,0a1.98,1.98,0,0,1,1.178.163q0,4.571,0,9.14c0,1-.05,1.047-1.062,1.047l-15.773,0ZM2.892,10.512c-.389.014-.78.03-1.166.021-1.846-.047-1.711.144-1.711-1.7C.015,6.3.036,3.768,0,1.234-.009.572.174.156.83,0A2.825,2.825,0,0,0,2.181.164q15.123,0,30.249,0c1.242,0,1.242,0,1.242,1.267q0,4,0,8.007c0,1.042-.04,1.078-1.107,1.078q-12.941,0-25.88,0a2.077,2.077,0,0,0-1.185.164A8.315,8.315,0,0,0,2.892,10.512Z" fill="url(#a)"/><g transform="matrix(1, 0, 0, 1, 0, -83.38)" filter="url(#j)"><path d="M16.845,49.357q-7.844,0-15.691,0c-1.111,0-1.14-.028-1.14-1.13,0-2.749.019-5.5-.012-8.248-.009-.74.246-.989.986-.986q15.852.024,31.7,0c.73,0,1,.24.99.984-.031,2.777-.009,5.554-.012,8.329,0,1.008-.05,1.054-1.055,1.054q-3.943,0-7.887,0ZM.986,36.422c-.737,0-.993-.249-.983-.986q.042-4.2,0-8.412C0,26.281.264,26.044,1,26.046c5.31.022,10.62.012,15.933.01q7.8,0,15.61,0c1.1,0,1.13.03,1.133,1.139,0,2.749-.019,5.5.014,8.248.007.744-.266.981-1,.981Q16.838,36.4.986,36.422Zm.078-12.957c-1,0-1.047-.054-1.05-1.059,0-2.777.019-5.551-.012-8.329-.009-.749.265-.993.993-.979,1.834.036,3.668.012,5.5.012q13,0,26,0a1.98,1.98,0,0,1,1.178.163q0,4.571,0,9.14c0,1-.05,1.047-1.062,1.047l-15.773,0ZM2.892,10.512c-.389.014-.78.03-1.166.021-1.846-.047-1.711.144-1.711-1.7C.015,6.3.036,3.768,0,1.234-.009.572.174.156.83,0A2.825,2.825,0,0,0,2.181.164q15.123,0,30.249,0c1.242,0,1.242,0,1.242,1.267q0,4,0,8.007c0,1.042-.04,1.078-1.107,1.078q-12.941,0-25.88,0a2.077,2.077,0,0,0-1.185.164A8.315,8.315,0,0,0,2.892,10.512Z" transform="translate(0 83.38)" fill="#fff"/></g></g></g><g transform="translate(44.018 26.047)"><g data-type="innerShadowGroup"><path d="M0,22.542q.039-4.409,0-8.817c0-.616.218-.779.8-.779q16.426.024,32.849.021a1.076,1.076,0,0,1,.4,1q.043,4.164,0,8.329a1.068,1.068,0,0,1-.4,1Q17.226,23.3.8,23.321H.789C.211,23.321,0,23.149,0,22.542ZM0,9.594Q.039,5.186,0,.777C0,.164.219,0,.8,0Q17.23.025,33.652.019a1.078,1.078,0,0,1,.4,1q.043,4.167,0,8.328a1.07,1.07,0,0,1-.4,1Q17.226,10.36.8,10.376C.214,10.376,0,10.2,0,9.594Z" transform="translate(0 0)" fill="url(#a)"/><g transform="matrix(1, 0, 0, 1, -44.02, -109.43)" filter="url(#n)"><path d="M0,22.542q.039-4.409,0-8.817c0-.616.218-.779.8-.779q16.426.024,32.849.021a1.076,1.076,0,0,1,.4,1q.043,4.164,0,8.329a1.068,1.068,0,0,1-.4,1Q17.226,23.3.8,23.321H.789C.211,23.321,0,23.149,0,22.542ZM0,9.594Q.039,5.186,0,.777C0,.164.219,0,.8,0Q17.23.025,33.652.019a1.078,1.078,0,0,1,.4,1q.043,4.167,0,8.328a1.07,1.07,0,0,1-.4,1Q17.226,10.36.8,10.376C.214,10.376,0,10.2,0,9.594Z" transform="translate(44.02 109.43)" fill="#fff"/></g></g></g><g transform="translate(80.958 13.101)"><g transform="translate(0 0)"><g data-type="innerShadowGroup"><path d="M2.582,36.244q0-5.168,0-10.334,15.077,0,30.151-.019c.7,0,.952.247.945.945q-.035,4.243,0,8.488c0,.7-.247.942-.945.942Q17.659,36.238,2.582,36.244ZM32.735,23.32Q17.659,23.295,2.582,23.3q0-5.165,0-10.332,15.077-.007,30.151-.021c.7,0,.952.246.945.944q-.035,4.246,0,8.488c0,.7-.244.942-.934.942ZM1.146,10.365c-1.106,0-1.134-.029-1.134-1.137,0-2.75.019-5.5-.012-8.251C-.007.235.264,0,.992,0Q16.845.025,32.7,0c.738,0,.992.251.985.987-.029,2.776-.009,5.552-.014,8.331,0,1-.05,1.046-1.061,1.046q-7.927,0-15.853,0Q8.953,10.367,1.146,10.365Z" fill="url(#a)"/><g transform="matrix(1, 0, 0, 1, -80.96, -96.48)" filter="url(#r)"><path d="M2.582,36.244q0-5.168,0-10.334,15.077,0,30.151-.019c.7,0,.952.247.945.945q-.035,4.243,0,8.488c0,.7-.247.942-.945.942Q17.659,36.238,2.582,36.244ZM32.735,23.32Q17.659,23.295,2.582,23.3q0-5.165,0-10.332,15.077-.007,30.151-.021c.7,0,.952.246.945.944q-.035,4.246,0,8.488c0,.7-.244.942-.934.942ZM1.146,10.365c-1.106,0-1.134-.029-1.134-1.137,0-2.75.019-5.5-.012-8.251C-.007.235.264,0,.992,0Q16.845.025,32.7,0c.738,0,.992.251.985.987-.029,2.776-.009,5.552-.014,8.331,0,1-.05,1.046-1.061,1.046q-7.927,0-15.853,0Q8.953,10.367,1.146,10.365Z" transform="translate(80.96 96.48)" fill="#fff"/></g></g></g></g></g></g></svg>