<svg xmlns="http://www.w3.org/2000/svg" xmlns:xlink="http://www.w3.org/1999/xlink" width="135.167" height="126.314" viewBox="0 0 135.167 126.314"><defs><linearGradient id="a" x1="1" x2="0.097" y2="1" gradientUnits="objectBoundingBox"><stop offset="0" stop-color="#494967" stop-opacity="0.306"/><stop offset="1" stop-color="#81899f"/></linearGradient><linearGradient id="c" x1="1" y1="0.5" x2="0" y2="1" gradientUnits="objectBoundingBox"><stop offset="0" stop-color="#d7d7d8"/><stop offset="0.689" stop-color="#518f8b"/><stop offset="1" stop-color="#a99bd1"/></linearGradient><linearGradient id="i" x1="1" x2="0.097" y2="1" gradientUnits="objectBoundingBox"><stop offset="0" stop-color="#494967" stop-opacity="0.306"/><stop offset="1" stop-color="#8d94aa"/></linearGradient><linearGradient id="j" x1="1" x2="0.097" y2="1" gradientUnits="objectBoundingBox"><stop offset="0" stop-color="#b8b8de" stop-opacity="0.306"/><stop offset="1" stop-color="#bcc5dd"/></linearGradient><filter id="l"><feOffset dy="3" input="SourceAlpha"/><feGaussianBlur stdDeviation="3" result="m"/><feFlood flood-color="#fff" flood-opacity="0.161" result="n"/><feComposite operator="out" in="SourceGraphic" in2="m"/><feComposite operator="in" in="n"/><feComposite operator="in" in2="SourceGraphic"/></filter><linearGradient id="o" x1="1" y1="0.5" x2="0" y2="1" gradientUnits="objectBoundingBox"><stop offset="0" stop-color="#d7d7d8"/><stop offset="0.689" stop-color="#518f8b"/><stop offset="1" stop-color="#8b84be"/></linearGradient><filter id="p"><feOffset dy="3" input="SourceAlpha"/><feGaussianBlur stdDeviation="3" result="q"/><feFlood flood-color="#fff" flood-opacity="0.161" result="r"/><feComposite operator="out" in="SourceGraphic" in2="q"/><feComposite operator="in" in="r"/><feComposite operator="in" in2="SourceGraphic"/></filter><linearGradient id="s" x1="0.925" x2="0.044" y2="1" gradientUnits="objectBoundingBox"><stop offset="0" stop-color="#ddd"/><stop offset="1" stop-color="#b0b0b0"/></linearGradient></defs><g transform="translate(0 0)"><path d="M52.973,107.262Q26.536,107.252.1,107.229C.084,90.457.072,51.6.066,34.828c0-9.779.113-19.56-.065-29.337A5.431,5.431,0,0,1,5.436,0Q44.823.08,84.218.05q11.078,0,22.159,0c3.506,0,5.575,1.935,5.575,5.286.008,26.45,0,74.986,0,101.436,0,.154-.017.306-.023.456-.507.012-1.014.03-1.52.03q-19.812,0-39.627.006Q61.878,107.265,52.973,107.262ZM37.351,58.1q-6,6.13-11.97,12.293c-.738.765-1.372,1.627-2.178,2.59h65.41c.03-.728-.418-1.028-.753-1.386q-4.667-4.979-9.344-9.955c-4.671-4.976-9.374-9.929-13.994-14.955-.983-1.072-1.523-.93-2.469.03C56.867,51.99,51.6,57.185,46.4,62.446c-.773.783-1.245.924-2.041.038-1.355-1.5-2.824-2.9-4.262-4.332-.783-.777-1.072-1.191-1.382-1.191C38.422,56.96,38.111,57.326,37.351,58.1Zm1.636-24.017c-.383,3.654,3.571,7.486,7.074,7.32,4.5-.214,7.438-3.1,7.45-7.293.012-4.215-2.949-7.123-7.267-7.279-.082,0-.164-.005-.245-.005C41.754,26.827,38.662,30.877,38.988,34.085ZM22.871,14.642c.777.068,1.582.138,1.578-1.356,0,1.492-.8,1.423-1.578,1.353a3.829,3.829,0,0,0-.633-.021,1.548,1.548,0,0,1,.158-.007C22.548,14.612,22.709,14.628,22.871,14.642Zm8.821,0c-.22,0-.459,0-.722,0C31.232,14.638,31.472,14.641,31.692,14.641Zm.055,0c2.374,0,2.374-.253,2.374-2.858C34.121,14.389,34.121,14.638,31.747,14.641Zm-1.583,0c-1.116,0-.887-.144-.9-2.354C29.278,14.495,29.046,14.638,30.165,14.638Zm-8.039-.006h0Zm.038,0,.032-.005Zm.037-.005.037,0ZM11.627,9.744c3.034.106,3.038.032,3.038,2.542,0-2.51,0-2.437-3.038-2.542l-.144-.005Zm17.634,2.433c0-2.273,0-2.393,1.506-2.4C29.261,9.784,29.261,9.9,29.261,12.177Zm-9.736-.644c0,.145,0,.284,0,.415,0-.132,0-.27,0-.415.005-1.636.006-1.756,2.541-1.759C19.531,9.778,19.531,9.9,19.526,11.534ZM31.036,9.78c2.992,0,3.085,0,3.086,1.821,0-1.817-.094-1.817-3.086-1.821l-.175,0ZM9.748,11.264c0-1.205.464-1.515,1.543-1.525C10.212,9.749,9.751,10.059,9.748,11.264ZM22.717,9.776c.237,0,.437,0,.608.011-.171-.01-.372-.011-.608-.011l-.592,0ZM11.381,9.738h0Z" transform="translate(0)" fill="url(#a)"/><path d="M5.5,3365.974q26.439.017,52.878.033,28.719.008,57.438,0c.506,0,1.012-.02,1.519-.031.009,7.29.036,14.581.02,21.871a4.9,4.9,0,0,1-5.21,4.914q-24.912.011-49.823,0-25.671,0-51.342,0c-3.621,0-5.509-1.894-5.506-5.521Q5.487,3376.606,5.5,3365.974ZM45.444,3380.6H65.8c2.925,0,2.824,0,2.961-2.993.073-1.595-.453-1.911-1.952-1.905-13.671.057-27.342.031-41.013.034-3.32,0-3.263.011-3.323,3.367-.022,1.233.38,1.528,1.555,1.52C31.165,3380.577,38.3,3380.6,45.444,3380.6Z" transform="translate(-5.407 -3280.833)" fill="url(#a)"/><path d="M146.8,3264.38H81.389c.8-.963,1.439-1.825,2.177-2.589q5.963-6.169,11.971-12.3c1.568-1.6,1.223-1.456,2.742.051,1.438,1.428,2.91,2.827,4.263,4.333.8.886,1.269.743,2.042-.039,5.2-5.262,10.467-10.453,15.653-15.727.945-.961,1.486-1.1,2.471-.031,4.62,5.026,9.321,9.977,13.994,14.955q4.673,4.977,9.344,9.956C146.38,3263.351,146.828,3263.651,146.8,3264.38Z" transform="translate(-58.185 -3191.396)" fill="url(#c)"/><path d="M133.123,3181.873c-.331-3.269,2.887-7.415,7.258-7.255,4.319.158,7.279,3.068,7.267,7.281-.012,4.192-2.952,7.079-7.449,7.292C136.7,3189.357,132.741,3185.525,133.123,3181.873Z" transform="translate(-94.136 -3147.79)" fill="url(#c)"/><path d="M84.216,3402.8c-7.139,0-14.279-.024-21.418.024-1.174.008-1.577-.287-1.555-1.52.061-3.357,0-3.366,3.323-3.367,13.671,0,27.342.023,41.013-.034,1.5-.006,2.025.31,1.952,1.9-.137,2.988-.036,2.993-2.961,2.993Z" transform="translate(-44.179 -3303.03)" fill="url(#c)"/></g><path d="M39.715,3123.448c-2.428,0-2.332,0-2.468-3.121-.068-1.549.47-1.829,1.871-1.779,3.036.107,3.039.034,3.037,2.544C42.154,3123.447,42.154,3123.447,39.715,3123.448Z" transform="translate(-27.491 -3108.806)" fill="url(#a)"/><path d="M71.881,3123.529c-2.57-.008-2.57-.008-2.562-3.109,0-1.766,0-1.766,3.19-1.758,1.686,0,1.543.012,1.725,3.263C74.365,3124.27,72.8,3123.344,71.881,3123.529Z" transform="translate(-49.793 -3108.889)" fill="url(#a)"/><path d="M101.243,3121.076c0-2.4,0-2.4,1.777-2.4,3.087,0,3.087,0,3.085,2,0,2.863,0,2.88-3.152,2.854C100.9,3123.519,101.272,3123.83,101.243,3121.076Z" transform="translate(-71.983 -3108.9)" fill="url(#a)"/><g transform="translate(22.719 13.883)"><g transform="translate(0 0)"><path d="M52.973,107.261Q26.53,107.255.1,107.23C.085,90.457.074,51.6.066,34.827c0-9.78.114-19.56-.065-29.338A5.429,5.429,0,0,1,5.432,0Q55.906.106,106.376.046c3.507,0,5.575,1.938,5.575,5.29.008,26.45,0,74.986,0,101.435,0,.153-.015.307-.022.458-.5.01-1.014.027-1.519.027q-20.307.005-40.614.005Q61.385,107.262,52.973,107.261ZM23.2,72.983h0c.224-.271.436-.534.641-.788C23.642,72.45,23.43,72.711,23.2,72.983Zm41.317-26.3c4.62,5.026,9.323,9.977,13.994,14.957q4.673,4.972,9.345,9.955c.323.348.754.635.755,1.318,0-.681-.432-.973-.755-1.318q-4.668-4.984-9.341-9.955c-4.674-4.979-9.377-9.931-14-14.957-.014-.017-.029-.033-.044-.048C64.492,46.655,64.506,46.67,64.52,46.687ZM37.35,58.1q-6,6.133-11.97,12.294c-.4.414-.771.856-1.153,1.328.382-.472.753-.913,1.153-1.328Q31.339,64.228,37.35,58.1Zm2.742.051c1.438,1.428,2.91,2.825,4.264,4.334.8.886,1.27.741,2.043-.039,5.2-5.261,10.465-10.455,15.651-15.729C56.864,51.991,51.6,57.181,46.4,62.446c-.773.779-1.244.922-2.043.039C43,60.976,41.53,59.579,40.092,58.151c-.784-.779-1.071-1.193-1.381-1.193C39.021,56.96,39.309,57.374,40.092,58.151Zm22-11.481a2.137,2.137,0,0,1,1.111-.724A2.137,2.137,0,0,0,62.1,46.67Zm1.954-.429a1.815,1.815,0,0,0-.281-.184A1.815,1.815,0,0,1,64.05,46.241Zm-.4-.237a.89.89,0,0,0-.331-.065A.89.89,0,0,1,63.649,46Z" fill="url(#i)"/><path d="M56.847,26.789q-25.669,0-51.34-.005c-3.622,0-5.51-1.9-5.507-5.522Q.013,10.635.028,0,26.466.018,52.907.031q28.715.013,57.435,0c.509,0,1.014-.019,1.519-.031.012,7.291.036,14.579.021,21.87a4.9,4.9,0,0,1-5.209,4.914q-12.455.008-24.911.005Zm-38.34-12.14h0Zm.045,0q5.356-.036,10.709-.029h0Q23.9,14.62,18.552,14.649Zm1.77-4.885c-3.32,0-3.264.009-3.324,3.368,0,.038,0,.074,0,.112,0-.038,0-.074,0-.112.06-3.359,0-3.368,3.324-3.368Zm42.962,1.869a1.962,1.962,0,0,0-.342-1.512A1.981,1.981,0,0,1,63.284,11.634Zm-.35-1.519a.035.035,0,0,0-.008-.007A.035.035,0,0,1,62.934,10.115Zm-31.679-.35,8.682,0-8.682,0q-3.646,0-7.291,0Q27.609,9.761,31.255,9.765Zm30.077-.036Z" transform="translate(0.067 85.141)" stroke="rgba(0,0,0,0)" stroke-miterlimit="10" stroke-width="1" fill="url(#j)"/><g data-type="innerShadowGroup"><path d="M146.8,3264.38H81.389c.8-.963,1.439-1.825,2.177-2.589q5.963-6.169,11.971-12.3c1.568-1.6,1.223-1.456,2.742.051,1.438,1.428,2.91,2.827,4.263,4.333.8.886,1.269.743,2.042-.039,5.2-5.262,10.467-10.453,15.653-15.727.945-.961,1.486-1.1,2.471-.031,4.62,5.026,9.321,9.977,13.994,14.955q4.673,4.977,9.344,9.956C146.38,3263.351,146.828,3263.651,146.8,3264.38Z" transform="translate(-58.187 -3191.396)" fill="url(#c)"/><g transform="matrix(1, 0, 0, 1, -22.72, -13.88)" filter="url(#l)"><path d="M146.8,3264.38H81.389c.8-.963,1.439-1.825,2.177-2.589q5.963-6.169,11.971-12.3c1.568-1.6,1.223-1.456,2.742.051,1.438,1.428,2.91,2.827,4.263,4.333.8.886,1.269.743,2.042-.039,5.2-5.262,10.467-10.453,15.653-15.727.945-.961,1.486-1.1,2.471-.031,4.62,5.026,9.321,9.977,13.994,14.955q4.673,4.977,9.344,9.956C146.38,3263.351,146.828,3263.651,146.8,3264.38Z" transform="translate(-35.47 -3177.51)" fill="#fff"/></g></g><g data-type="innerShadowGroup"><path d="M84.216,3402.8c-7.139,0-14.279-.024-21.418.024-1.174.008-1.577-.287-1.555-1.52.061-3.357,0-3.366,3.323-3.367,13.671,0,27.342.023,41.013-.034,1.5-.006,2.025.31,1.952,1.9-.137,2.988-.036,2.993-2.961,2.993Z" transform="translate(-44.18 -3303.031)" fill="url(#o)"/><g transform="matrix(1, 0, 0, 1, -22.72, -13.88)" filter="url(#p)"><path d="M84.216,3402.8c-7.139,0-14.279-.024-21.418.024-1.174.008-1.577-.287-1.555-1.52.061-3.357,0-3.366,3.323-3.367,13.671,0,27.342.023,41.013-.034,1.5-.006,2.025.31,1.952,1.9-.137,2.988-.036,2.993-2.961,2.993Z" transform="translate(-21.46 -3289.15)" fill="#fff"/></g></g></g><path d="M39.715,3123.448c-2.428,0-2.332,0-2.468-3.121-.068-1.549.47-1.829,1.871-1.779,3.036.107,3.039.034,3.037,2.544C42.154,3123.447,42.154,3123.447,39.715,3123.448Z" transform="translate(-27.491 -3108.807)" fill="url(#s)"/><path d="M71.881,3123.529c-2.57-.008-2.57-.008-2.562-3.109,0-1.766,0-1.766,3.19-1.758,1.686,0,1.543.012,1.725,3.263C74.365,3124.27,72.8,3123.344,71.881,3123.529Z" transform="translate(-49.794 -3108.889)" fill="url(#s)"/><path d="M101.243,3121.076c0-2.4,0-2.4,1.777-2.4,3.087,0,3.087,0,3.085,2,0,2.863,0,2.88-3.152,2.854C100.9,3123.519,101.272,3123.83,101.243,3121.076Z" transform="translate(-71.984 -3108.901)" fill="url(#s)"/></g><path d="M133.123,3181.873c-.331-3.269,2.887-7.415,7.258-7.255,4.319.158,7.279,3.068,7.267,7.281-.012,4.192-2.952,7.079-7.449,7.292C136.7,3189.357,132.741,3185.525,133.123,3181.873Z" transform="translate(-71.418 -3133.906)" fill="url(#c)"/></svg>