<svg width="27" height="40" viewBox="0 0 27 40" fill="none" xmlns="http://www.w3.org/2000/svg">
<path d="M13.6426 40C7.48389 40 2.5453 36.0408 0.744168 29.6943C-1.69608 21.31 1.61568 9.19942 14.3979 1.10626L16.199 0V2.09607C16.199 9.31587 19.1041 13.4498 21.893 17.409C24.1589 20.6114 26.3086 23.6972 26.3086 27.8894C26.2505 33.8865 21.9511 40 13.6426 40ZM13.9912 4.25036C3.59112 11.5866 0.86037 21.8923 2.95201 29.0539C4.52074 34.4105 8.47161 37.6128 13.6426 37.6128C20.7309 37.6128 23.9265 32.5473 23.9265 27.8894C23.9265 24.3959 22.0673 21.7758 19.9756 18.7482C17.3611 15.0801 14.456 10.9461 13.9912 4.25036Z" fill="#4DD9F6"/>
<path d="M11.3187 39.5924C10.6796 39.5924 10.0986 39.5342 9.45947 39.3595L10.0405 37.0887C11.8416 37.5545 13.6427 36.9723 14.6886 35.5167C16.3154 33.3042 15.9668 29.9272 13.759 26.3755C8.23935 17.5837 8.35555 8.90826 14.1657 1.39734L16.0249 2.79472C10.7958 9.60695 10.7377 17.1179 15.7925 25.1528C18.5232 29.5196 18.8718 33.8864 16.664 36.9141C15.2696 38.6026 13.3522 39.5924 11.3187 39.5924Z" fill="#4DD9F6"/>
</svg>
