<?xml version="1.0" encoding="utf-8"?>
<!-- Generator: Adobe Illustrator 26.0.3, SVG Export Plug-In . SVG Version: 6.00 Build 0)  -->
<svg version="1.1" id="Layer_1" xmlns="http://www.w3.org/2000/svg" xmlns:xlink="http://www.w3.org/1999/xlink" x="0px" y="0px"
	 viewBox="0 0 184.3 82.1" style="enable-background:new 0 0 184.3 82.1;" xml:space="preserve">
<style type="text/css">
	.st0{fill:url(#Union_203_00000036232217825129309990000010680216606816548248_);}
	.st1{fill:url(#SVGID_1_);}
	.st2{fill:none;}
	.st3{fill:url(#SVGID_00000173144279740259890320000007361993093883598729_);}
	.st4{fill:url(#SVGID_00000053526698227560914930000004532436011626429117_);}
	.st5{display:none;filter:url(#Union_172);}
	.st6{display:inline;}
	.st7{fill:#FFFFFF;}
</style>
<filter  filterUnits="userSpaceOnUse" height="68.015" id="Union_172" width="66.655" x="7.729" y="7.048">
	<feOffset  dy="2" input="SourceAlpha"></feOffset>
	<feGaussianBlur  result="blur" stdDeviation="3"></feGaussianBlur>
	<feFlood  flood-color="#fff" result="color"></feFlood>
	<feComposite  in="SourceGraphic" in2="blur" operator="out"></feComposite>
	<feComposite  in="color" operator="in"></feComposite>
	<feComposite  in2="SourceGraphic" operator="in"></feComposite>
</filter>
<g id="Group_12238" transform="translate(-128 -49.698)">
	
		<linearGradient id="Union_203_00000079452812968692071510000004133876035861048724_" gradientUnits="userSpaceOnUse" x1="42.3399" y1="335.692" x2="43.6379" y2="333.6111" gradientTransform="matrix(89.8008 0 0 -27.2158 -3546.3489 9221.168)">
		<stop  offset="0" style="stop-color:#000000"/>
		<stop  offset="1" style="stop-color:#000000;stop-opacity:0"/>
	</linearGradient>
	<path id="Union_203" style="fill:url(#Union_203_00000079452812968692071510000004133876035861048724_);" d="M250.6,103.3
		c-1.5-0.7-2.7-1.7-3.6-3.1c-0.9-1.5-1.3-3.2-1.3-4.9v-0.9h4v0.9c-0.1,1.6,0.5,3.1,1.7,4.1c1.3,1,2.8,1.5,4.4,1.4
		c1.5,0.1,3-0.3,4.2-1.2c0.9-0.7,1.4-1.9,1.4-3c0-0.7-0.2-1.5-0.7-2c-0.5-0.6-1.2-1-1.9-1.3c-1-0.4-2-0.6-3-0.9l-1.4-0.3
		c-1.5-0.3-3-0.8-4.4-1.5c-1.1-0.5-2.1-1.3-2.9-2.3c-0.7-1.1-1.1-2.4-1-3.7c0-1.4,0.4-2.8,1.1-4c0.8-1.1,1.9-2,3.2-2.5
		c1.5-0.6,3.1-0.9,4.7-0.9c1.7,0,3.3,0.3,4.9,0.9c1.4,0.6,2.5,1.5,3.4,2.8c0.9,1.4,1.3,3,1.2,4.6v1.3h-4v-1.3c0-1-0.2-1.9-0.7-2.7
		c-0.5-0.7-1.1-1.2-1.9-1.5c-0.9-0.3-1.9-0.5-2.9-0.5c-1.3-0.1-2.6,0.3-3.7,1c-0.9,0.6-1.4,1.7-1.3,2.7c0,0.7,0.2,1.4,0.6,2
		c0.4,0.6,1,1,1.7,1.3c0.9,0.4,1.8,0.7,2.8,0.9l1.4,0.3c1.5,0.3,3,0.8,4.5,1.4c1.2,0.5,2.3,1.3,3.1,2.4c0.8,1.1,1.2,2.5,1.1,3.8
		c0,1.5-0.4,2.9-1.2,4.1c-0.8,1.2-2,2.2-3.3,2.7c-1.6,0.7-3.4,1-5.1,1C254,104.4,252.2,104,250.6,103.3z M227.1,103.2
		c-1.4-0.7-2.6-1.8-3.4-3.2c-0.9-1.6-1.3-3.3-1.2-5.1V77.7h4.1V95c-0.1,1.6,0.5,3.1,1.5,4.3c1.2,1.1,2.8,1.6,4.4,1.5
		c1.6,0.1,3.2-0.4,4.4-1.5c1.1-1.1,1.6-2.7,1.5-4.3V77.7h4v17.2c0.1,1.8-0.4,3.6-1.2,5.1c-0.8,1.4-2,2.5-3.4,3.2
		c-1.7,0.8-3.5,1.2-5.3,1.1C230.6,104.4,228.8,104,227.1,103.2L227.1,103.2z M291.1,103.8v-3.6h3.5v-19h-3.5v-3.6h13.3
		c1.4,0,2.8,0.2,4.1,0.8c1.1,0.5,2.1,1.3,2.7,2.3c0.7,1,1,2.3,1,3.5v0.4c0,1-0.2,2-0.7,3c-0.4,0.7-1,1.3-1.6,1.8
		c-0.6,0.4-1.2,0.7-1.8,0.9v0.6c0.7,0.2,1.3,0.5,1.9,0.9c0.7,0.5,1.3,1.1,1.7,1.8c0.5,0.9,0.7,2,0.7,3V97c0,1.3-0.3,2.6-1,3.7
		c-0.7,1-1.7,1.8-2.8,2.4c-1.3,0.6-2.7,0.9-4.1,0.8L291.1,103.8z M303.9,100.2c1.1,0.1,2.3-0.3,3.2-1c0.8-0.7,1.2-1.7,1.2-2.7v-0.3
		c0.1-1-0.4-2-1.1-2.7c-0.9-0.7-2.1-1-3.2-1h-5.3v7.7H303.9z M303.9,88.8c1.1,0.1,2.2-0.3,3.1-1c0.8-0.6,1.2-1.6,1.2-2.6v-0.4
		c0-1-0.4-2-1.1-2.6c-0.9-0.7-2-1-3.1-1h-5.3v7.5L303.9,88.8z M267.8,103.8v-3.6h3.5v-19h-3.5v-3.6h10.5c3.5,0,6.2,0.9,8,2.7
		c1.9,1.8,2.8,4.4,2.8,8v4.9c0,3.6-0.9,6.2-2.8,8s-4.5,2.6-8,2.6L267.8,103.8z M278.3,100.2c1.8,0.2,3.7-0.5,5-1.7
		c1.2-1.4,1.8-3.3,1.6-5.1v-5.2c0.1-1.9-0.4-3.7-1.6-5.1c-1.4-1.2-3.2-1.8-5-1.7h-2.9v18.8H278.3z"/>
	<g id="Component_3_2" transform="translate(128 49.698)">
		<g id="Ellipse_340">
			
				<linearGradient id="SVGID_1_" gradientUnits="userSpaceOnUse" x1="-85.7282" y1="290.5661" x2="-85.1252" y2="291.3551" gradientTransform="matrix(82.112 0 0 -82.112 7056.7441 23930.9277)">
				<stop  offset="0" style="stop-color:#53918D"/>
				<stop  offset="0.463" style="stop-color:#000000"/>
				<stop  offset="0.97" style="stop-color:#411E9E"/>
				<stop  offset="1" style="stop-color:#4520A7"/>
			</linearGradient>
			<ellipse class="st1" cx="41.1" cy="41.1" rx="41.1" ry="41.1"/>
			<ellipse class="st2" cx="41.1" cy="41.1" rx="39.6" ry="39.6"/>
		</g>
		<g>
			<g id="Union_172-2" transform="translate(7.729 7.048)">
				
					<linearGradient id="SVGID_00000182507639487444163580000003895160936478536364_" gradientUnits="userSpaceOnUse" x1="-92.5209" y1="283.435" x2="-93.5179" y2="283.261" gradientTransform="matrix(66.6664 0 0 -68.0202 6228.2427 19308.5391)">
					<stop  offset="0" style="stop-color:#FFFFFF"/>
					<stop  offset="1" style="stop-color:#D3D3D3"/>
				</linearGradient>
				<path style="fill:url(#SVGID_00000182507639487444163580000003895160936478536364_);" d="M21.7,66c-7.2-2.6-13.3-7.5-17.4-14
					c-2-3.2-3.5-6.8-4.4-10.6c0-0.1,0-0.3,0.1-0.4c0.1-0.1,0.2-0.2,0.3-0.2h3.9c0.2,0,0.4,0.1,0.4,0.3c0.8,3.1,2.1,6.1,3.9,8.8
					c9,13.6,27.3,17.5,40.9,8.5c3.4-2.2,6.3-5.1,8.5-8.5c1.8-2.7,3.1-5.7,3.9-8.8c0-0.2,0.2-0.3,0.4-0.3h3.9c0.2,0,0.4,0.2,0.4,0.4
					c0,0,0,0.1,0,0.1c-0.8,3.7-2.3,7.3-4.4,10.6C53.8,65.6,36.9,71.4,21.7,66z M31.6,57.7c-0.3,0-0.5-0.2-0.5-0.5l0,0v-4.5
					c-2.9-0.5-5.5-1.9-7.5-4.1c-1-1.1-1.8-2.4-2.4-3.7c-0.6-1.4-0.9-2.9-0.9-4.5c0-0.3,0.2-0.5,0.5-0.5c0,0,0,0,0,0h3.6
					c0.3,0,0.5,0.2,0.5,0.5c0,0,0,0,0,0c-0.2,4.6,3.4,8.5,8,8.7c4.6,0.2,8.5-3.4,8.7-8c0.2-4.6-3.4-8.5-8-8.7c-0.1,0-0.2,0-0.3,0
					c-0.3,0-0.5-0.2-0.5-0.5c0,0,0,0,0,0v-3.4c0-0.3,0.2-0.5,0.5-0.5c0,0,0,0,0,0c7-0.1,12.8,5.4,12.9,12.4c0,0,0,0,0,0
					c0,1.5-0.3,3-0.8,4.4c-0.5,1.4-1.3,2.6-2.3,3.7c-2,2.1-4.6,3.6-7.4,4.1v4.6c0,0.3-0.2,0.5-0.5,0.5c0,0,0,0,0,0L31.6,57.7z
					 M20.4,27.4c0-1.5,0.3-3,0.9-4.5c0.6-1.4,1.4-2.6,2.4-3.7c2-2.2,4.6-3.6,7.5-4.1v-4.3c0-0.3,0.2-0.5,0.5-0.5c0,0,0,0,0,0h3.5
					c0.3,0,0.5,0.2,0.5,0.5c0,0,0,0,0,0v4.3c2.9,0.5,5.5,1.9,7.4,4.1c1,1.1,1.8,2.4,2.3,3.7c0.6,1.4,0.9,2.9,0.9,4.4
					c0,0.3-0.2,0.5-0.5,0.5h0h-3.6c-0.3,0-0.5-0.2-0.5-0.5c0,0,0,0,0,0c-0.2-4.6-4.1-8.2-8.7-8c-4.4,0.2-7.9,3.7-8,8
					c0.1,4.5,3.9,8.1,8.4,8c0.3,0,0.5,0.2,0.5,0.5c0,0,0,0,0,0v3.4c0,0.3-0.2,0.5-0.5,0.5c0,0,0,0,0,0C26.3,40,20.5,34.4,20.4,27.4
					L20.4,27.4z M0.4,27.1c-0.1,0-0.3-0.1-0.3-0.2C0,26.9,0,26.7,0,26.6c0.8-3.7,2.3-7.3,4.4-10.6C14.4,0,35.5-4.8,51.5,5.2
					C55.9,8,59.6,11.7,62.3,16c2,3.3,3.5,6.8,4.4,10.6c0.1,0.2-0.1,0.5-0.3,0.5c0,0-0.1,0-0.1,0h-3.9c-0.2,0-0.4-0.1-0.4-0.3
					c-0.8-3.1-2.1-6.1-3.9-8.8c-9-13.6-27.3-17.5-40.9-8.5c-3.4,2.2-6.3,5.1-8.5,8.5c-1.8,2.7-3.1,5.7-3.9,8.8
					c0,0.2-0.2,0.3-0.4,0.3L0.4,27.1z"/>
				
					<linearGradient id="SVGID_00000074420542818274352310000008484090407255447444_" gradientUnits="userSpaceOnUse" x1="-92.5207" y1="283.4348" x2="-93.5177" y2="283.2608" gradientTransform="matrix(66.6551 0 0 -68.0152 6227.1753 19307.0957)">
					<stop  offset="0" style="stop-color:#FFFFFF"/>
					<stop  offset="1" style="stop-color:#D3D3D3"/>
				</linearGradient>
				<path style="fill:url(#SVGID_00000074420542818274352310000008484090407255447444_);" d="M33.3,66c3.7,0,7.4-0.6,10.9-1.9
					c3.4-1.2,6.5-3,9.3-5.3c2.8-2.2,5.2-4.9,7-7.9c1.6-2.5,2.8-5.2,3.6-8h-0.7c-0.9,2.9-2.2,5.7-3.8,8.3c-1.9,2.9-4.2,5.4-6.9,7.5
					c-2.7,2.1-5.7,3.8-9,5c-3.4,1.2-6.9,1.8-10.5,1.8c-3.6,0-7.1-0.6-10.5-1.8c-3.3-1.1-6.3-2.8-9-5c-2.7-2.1-5-4.6-6.9-7.5
					c-1.7-2.6-3-5.3-3.8-8.3H2.5c0.8,2.8,2,5.5,3.6,8c1.9,3,4.3,5.7,7,7.9c2.8,2.3,5.9,4,9.3,5.3C25.9,65.4,29.6,66,33.3,66
					 M33.6,55.7v-4.7l1.7-0.3c2.4-0.4,4.7-1.6,6.3-3.4c0.8-0.9,1.5-2,2-3.1c0.5-1.1,0.7-2.3,0.7-3.6l0,0l0-0.1
					c0-5.3-4.1-9.6-9.4-10.3v0.4c5,0.7,8.9,4.9,8.9,9.9c0,5.5-4.7,10-10.4,10c-5.2,0-9.5-3.7-10.3-8.5h-0.5c0.1,0.8,0.3,1.5,0.6,2.2
					c0.5,1.1,1.1,2.2,2,3.1c1.6,1.8,3.9,3,6.3,3.4l1.7,0.3v4.7H33.6 M31.8,37.8v-0.4c-5-0.7-8.9-4.9-8.9-9.9
					c0-5.5,4.7-10.1,10.4-10.1c5.2,0,9.5,3.7,10.3,8.5h0.5c-0.1-0.7-0.3-1.5-0.6-2.2c-0.5-1.1-1.1-2.2-2-3.1c-1.6-1.8-3.9-3-6.3-3.4
					l-1.7-0.3v-4.5h-0.5v4.5l-1.7,0.3c-2.4,0.4-4.7,1.6-6.3,3.4c-0.9,0.9-1.5,2-2,3.1c-0.5,1.2-0.7,2.4-0.7,3.7
					C22.4,32.7,26.5,37.1,31.8,37.8 M3.1,25.1c0.9-2.9,2.2-5.7,3.8-8.3c1.9-2.9,4.2-5.4,6.9-7.5c2.7-2.1,5.8-3.8,9-5
					c3.4-1.2,6.9-1.8,10.5-1.8c3.6,0,7.1,0.6,10.5,1.8c3.3,1.1,6.3,2.8,9,5c2.7,2.1,5,4.6,6.9,7.5c1.7,2.6,3,5.3,3.8,8.3h0.7
					c-0.8-2.8-2-5.5-3.6-8c-1.9-3-4.3-5.7-7-7.9c-2.8-2.3-5.9-4-9.3-5.3C40.7,2.6,37.1,2,33.3,2c-3.7,0-7.4,0.6-10.9,1.9
					c-3.4,1.2-6.5,3-9.3,5.3c-2.8,2.2-5.1,4.9-7,7.9c-1.6,2.5-2.8,5.2-3.6,8L3.1,25.1 M33.3,68c-4,0-7.9-0.7-11.6-2
					c-3.6-1.3-6.9-3.2-9.9-5.6c-3-2.4-5.5-5.2-7.5-8.4C2.3,48.7,0.8,45.2,0,41.4c0-0.1,0-0.3,0.1-0.4c0.1-0.1,0.2-0.2,0.3-0.2h3.9
					c0.2,0,0.4,0.1,0.4,0.3c0.8,3.1,2.1,6.1,3.9,8.8c1.8,2.7,3.9,5,6.5,7c2.5,2,5.4,3.6,8.4,4.6c3.2,1.1,6.5,1.7,9.8,1.7
					c3.4,0,6.7-0.6,9.8-1.7c3-1.1,5.9-2.6,8.4-4.6c2.5-2,4.7-4.4,6.5-7c1.8-2.7,3.1-5.7,3.9-8.8c0-0.2,0.2-0.3,0.4-0.3h3.9
					c0.1,0,0.3,0.1,0.3,0.2c0.1,0.1,0.1,0.2,0.1,0.4c-0.8,3.7-2.3,7.3-4.4,10.6c-2,3.2-4.5,6-7.5,8.4c-3,2.4-6.3,4.3-9.9,5.6
					C41.2,67.3,37.3,68,33.3,68z M35.1,57.7h-3.5c-0.3,0-0.5-0.2-0.5-0.5v-4.6c-2.9-0.5-5.5-1.9-7.5-4.1c-1-1.1-1.8-2.4-2.4-3.7
					c-0.6-1.4-0.9-2.9-0.9-4.5c0-0.3,0.2-0.5,0.5-0.5h3.6c0.3,0,0.5,0.2,0.5,0.5c0,4.4,3.8,8,8.4,8c4.6,0,8.4-3.6,8.4-8
					c0-4.4-3.8-8.1-8.4-8.1c-0.3,0-0.5-0.2-0.5-0.5v-3.4c0-0.3,0.2-0.5,0.5-0.5c7.1,0,12.9,5.6,12.9,12.4c0,0,0,0,0,0
					c0,1.5-0.3,3-0.9,4.4c-0.5,1.4-1.3,2.6-2.3,3.7c-1.9,2.1-4.6,3.6-7.4,4.1v4.6C35.6,57.4,35.4,57.7,35.1,57.7z M33.3,39.9
					c-7.1,0-12.9-5.6-12.9-12.4c0-1.5,0.3-3,0.9-4.5c0.6-1.4,1.3-2.6,2.4-3.7c2-2.1,4.6-3.6,7.5-4.1v-4.3c0-0.3,0.2-0.5,0.5-0.5h3.5
					c0.3,0,0.5,0.2,0.5,0.5v4.3c2.9,0.5,5.5,1.9,7.4,4.1c1,1.1,1.8,2.4,2.3,3.7c0.6,1.4,0.9,2.9,0.9,4.4c0,0.3-0.2,0.5-0.5,0.5h-3.6
					c-0.3,0-0.5-0.2-0.5-0.5c0-4.4-3.8-8.1-8.4-8.1c-4.6,0-8.4,3.6-8.4,8.1c0,4.4,3.8,8.1,8.4,8.1c0.3,0,0.5,0.2,0.5,0.5v3.4
					C33.8,39.7,33.6,39.9,33.3,39.9z M4.3,27.1l-3.9,0c-0.1,0-0.3-0.1-0.3-0.2C0,26.9,0,26.7,0,26.6c0.8-3.7,2.3-7.3,4.4-10.6
					c2-3.2,4.5-6,7.5-8.4c3-2.4,6.3-4.3,9.9-5.6c3.7-1.3,7.6-2,11.6-2c4,0,7.9,0.7,11.6,2c3.6,1.3,6.9,3.2,9.9,5.6
					c3,2.4,5.5,5.2,7.5,8.4c2,3.3,3.5,6.8,4.4,10.6c0,0.1,0,0.3-0.1,0.4c-0.1,0.1-0.2,0.2-0.3,0.2h-3.9c-0.2,0-0.4-0.1-0.4-0.3
					c-0.8-3.1-2.1-6.1-3.9-8.8c-1.8-2.7-3.9-5-6.5-7c-2.5-2-5.4-3.6-8.4-4.6c-3.2-1.1-6.5-1.7-9.8-1.7c-3.4,0-6.7,0.6-9.8,1.7
					c-3,1.1-5.9,2.6-8.4,4.6c-2.5,2-4.7,4.4-6.5,7c-1.8,2.7-3.1,5.7-3.9,8.8C4.7,27,4.5,27.1,4.3,27.1z"/>
			</g>
			<g transform="matrix(1, 0, 0, 1, 0, 0)" class="st5">
				<g id="Union_172-3_00000127001980462267747680000015075049959191872172_" transform="translate(7.73 7.05)" class="st6">
					<path class="st7" d="M21.7,66c-7.2-2.6-13.3-7.5-17.4-14c-2-3.2-3.5-6.8-4.4-10.6c0-0.1,0-0.3,0.1-0.4c0.1-0.1,0.2-0.2,0.3-0.2
						h3.9c0.2,0,0.4,0.1,0.4,0.3c0.8,3.1,2.1,6.1,3.9,8.8c9,13.6,27.3,17.5,40.9,8.5c3.4-2.2,6.3-5.1,8.5-8.5
						c1.8-2.7,3.1-5.7,3.9-8.8c0-0.2,0.2-0.3,0.4-0.3h3.9c0.2,0,0.4,0.2,0.4,0.4c0,0,0,0.1,0,0.1c-0.8,3.7-2.3,7.3-4.4,10.6
						C53.8,65.6,36.9,71.4,21.7,66z M31.6,57.7c-0.3,0-0.5-0.2-0.5-0.5l0,0v-4.5c-2.9-0.5-5.5-1.9-7.5-4.1c-1-1.1-1.8-2.4-2.4-3.7
						c-0.6-1.4-0.9-2.9-0.9-4.5c0-0.3,0.2-0.5,0.5-0.5c0,0,0,0,0,0h3.6c0.3,0,0.5,0.2,0.5,0.5c0,0,0,0,0,0c-0.2,4.6,3.4,8.5,8,8.7
						c4.6,0.2,8.5-3.4,8.7-8c0.2-4.6-3.4-8.5-8-8.7c-0.1,0-0.2,0-0.3,0c-0.3,0-0.5-0.2-0.5-0.5c0,0,0,0,0,0v-3.4
						c0-0.3,0.2-0.5,0.5-0.5c0,0,0,0,0,0c7-0.1,12.8,5.4,12.9,12.4c0,0,0,0,0,0c0,1.5-0.3,3-0.8,4.4c-0.5,1.4-1.3,2.6-2.3,3.7
						c-2,2.1-4.6,3.6-7.4,4.1v4.6c0,0.3-0.2,0.5-0.5,0.5c0,0,0,0,0,0L31.6,57.7z M20.4,27.4c0-1.5,0.3-3,0.9-4.5
						c0.6-1.4,1.4-2.6,2.4-3.7c2-2.2,4.6-3.6,7.5-4.1v-4.3c0-0.3,0.2-0.5,0.5-0.5c0,0,0,0,0,0h3.5c0.3,0,0.5,0.2,0.5,0.5
						c0,0,0,0,0,0v4.3c2.9,0.5,5.5,1.9,7.4,4.1c1,1.1,1.8,2.4,2.3,3.7c0.6,1.4,0.9,2.9,0.9,4.4c0,0.3-0.2,0.5-0.5,0.5h0h-3.6
						c-0.3,0-0.5-0.2-0.5-0.5c0,0,0,0,0,0c-0.2-4.6-4.1-8.2-8.7-8c-4.4,0.2-7.9,3.7-8,8c0.1,4.5,3.9,8.1,8.4,8
						c0.3,0,0.5,0.2,0.5,0.5c0,0,0,0,0,0v3.4c0,0.3-0.2,0.5-0.5,0.5c0,0,0,0,0,0C26.3,40,20.5,34.4,20.4,27.4L20.4,27.4z M0.4,27.1
						c-0.1,0-0.3-0.1-0.3-0.2C0,26.9,0,26.7,0,26.6c0.8-3.7,2.3-7.3,4.4-10.6C14.4,0,35.5-4.8,51.5,5.2C55.9,8,59.6,11.7,62.3,16
						c2,3.3,3.5,6.8,4.4,10.6c0.1,0.2-0.1,0.5-0.3,0.5c0,0-0.1,0-0.1,0h-3.9c-0.2,0-0.4-0.1-0.4-0.3c-0.8-3.1-2.1-6.1-3.9-8.8
						c-9-13.6-27.3-17.5-40.9-8.5c-3.4,2.2-6.3,5.1-8.5,8.5c-1.8,2.7-3.1,5.7-3.9,8.8c0,0.2-0.2,0.3-0.4,0.3L0.4,27.1z"/>
					<path class="st7" d="M33.3,66c3.7,0,7.4-0.6,10.9-1.9c3.4-1.2,6.5-3,9.3-5.3c2.8-2.2,5.2-4.9,7-7.9c1.6-2.5,2.8-5.2,3.6-8h-0.7
						c-0.9,2.9-2.2,5.7-3.8,8.3c-1.9,2.9-4.2,5.4-6.9,7.5c-2.7,2.1-5.7,3.8-9,5c-3.4,1.2-6.9,1.8-10.5,1.8c-3.6,0-7.1-0.6-10.5-1.8
						c-3.3-1.1-6.3-2.8-9-5c-2.7-2.1-5-4.6-6.9-7.5c-1.7-2.6-3-5.3-3.8-8.3H2.5c0.8,2.8,2,5.5,3.6,8c1.9,3,4.3,5.7,7,7.9
						c2.8,2.3,5.9,4,9.3,5.3C25.9,65.4,29.6,66,33.3,66 M33.6,55.7v-4.7l1.7-0.3c2.4-0.4,4.7-1.6,6.3-3.4c0.8-0.9,1.5-2,2-3.1
						c0.5-1.1,0.7-2.3,0.7-3.6l0,0l0-0.1c0-5.3-4.1-9.6-9.4-10.3v0.4c5,0.7,8.9,4.9,8.9,9.9c0,5.5-4.7,10-10.4,10
						c-5.2,0-9.5-3.7-10.3-8.5h-0.5c0.1,0.8,0.3,1.5,0.6,2.2c0.5,1.1,1.1,2.2,2,3.1c1.6,1.8,3.9,3,6.3,3.4l1.7,0.3v4.7H33.6
						 M31.8,37.8v-0.4c-5-0.7-8.9-4.9-8.9-9.9c0-5.5,4.7-10.1,10.4-10.1c5.2,0,9.5,3.7,10.3,8.5h0.5c-0.1-0.7-0.3-1.5-0.6-2.2
						c-0.5-1.1-1.1-2.2-2-3.1c-1.6-1.8-3.9-3-6.3-3.4l-1.7-0.3v-4.5h-0.5v4.5l-1.7,0.3c-2.4,0.4-4.7,1.6-6.3,3.4
						c-0.9,0.9-1.5,2-2,3.1c-0.5,1.2-0.7,2.4-0.7,3.7C22.4,32.7,26.5,37.1,31.8,37.8 M3.1,25.1c0.9-2.9,2.2-5.7,3.8-8.3
						c1.9-2.9,4.2-5.4,6.9-7.5c2.7-2.1,5.8-3.8,9-5c3.4-1.2,6.9-1.8,10.5-1.8c3.6,0,7.1,0.6,10.5,1.8c3.3,1.1,6.3,2.8,9,5
						c2.7,2.1,5,4.6,6.9,7.5c1.7,2.6,3,5.3,3.8,8.3h0.7c-0.8-2.8-2-5.5-3.6-8c-1.9-3-4.3-5.7-7-7.9c-2.8-2.3-5.9-4-9.3-5.3
						C40.7,2.6,37.1,2,33.3,2c-3.7,0-7.4,0.6-10.9,1.9c-3.4,1.2-6.5,3-9.3,5.3c-2.8,2.2-5.1,4.9-7,7.9c-1.6,2.5-2.8,5.2-3.6,8
						L3.1,25.1 M33.3,68c-4,0-7.9-0.7-11.6-2c-3.6-1.3-6.9-3.2-9.9-5.6c-3-2.4-5.5-5.2-7.5-8.4C2.3,48.7,0.8,45.2,0,41.4
						c0-0.1,0-0.3,0.1-0.4c0.1-0.1,0.2-0.2,0.3-0.2h3.9c0.2,0,0.4,0.1,0.4,0.3c0.8,3.1,2.1,6.1,3.9,8.8c1.8,2.7,3.9,5,6.5,7
						c2.5,2,5.4,3.6,8.4,4.6c3.2,1.1,6.5,1.7,9.8,1.7c3.4,0,6.7-0.6,9.8-1.7c3-1.1,5.9-2.6,8.4-4.6c2.5-2,4.7-4.4,6.5-7
						c1.8-2.7,3.1-5.7,3.9-8.8c0-0.2,0.2-0.3,0.4-0.3h3.9c0.1,0,0.3,0.1,0.3,0.2c0.1,0.1,0.1,0.2,0.1,0.4c-0.8,3.7-2.3,7.3-4.4,10.6
						c-2,3.2-4.5,6-7.5,8.4c-3,2.4-6.3,4.3-9.9,5.6C41.2,67.3,37.3,68,33.3,68z M35.1,57.7h-3.5c-0.3,0-0.5-0.2-0.5-0.5v-4.6
						c-2.9-0.5-5.5-1.9-7.5-4.1c-1-1.1-1.8-2.4-2.4-3.7c-0.6-1.4-0.9-2.9-0.9-4.5c0-0.3,0.2-0.5,0.5-0.5h3.6c0.3,0,0.5,0.2,0.5,0.5
						c0,4.4,3.8,8,8.4,8c4.6,0,8.4-3.6,8.4-8c0-4.4-3.8-8.1-8.4-8.1c-0.3,0-0.5-0.2-0.5-0.5v-3.4c0-0.3,0.2-0.5,0.5-0.5
						c7.1,0,12.9,5.6,12.9,12.4c0,0,0,0,0,0c0,1.5-0.3,3-0.9,4.4c-0.5,1.4-1.3,2.6-2.3,3.7c-1.9,2.1-4.6,3.6-7.4,4.1v4.6
						C35.6,57.4,35.4,57.7,35.1,57.7z M33.3,39.9c-7.1,0-12.9-5.6-12.9-12.4c0-1.5,0.3-3,0.9-4.5c0.6-1.4,1.3-2.6,2.4-3.7
						c2-2.1,4.6-3.6,7.5-4.1v-4.3c0-0.3,0.2-0.5,0.5-0.5h3.5c0.3,0,0.5,0.2,0.5,0.5v4.3c2.9,0.5,5.5,1.9,7.4,4.1
						c1,1.1,1.8,2.4,2.3,3.7c0.6,1.4,0.9,2.9,0.9,4.4c0,0.3-0.2,0.5-0.5,0.5h-3.6c-0.3,0-0.5-0.2-0.5-0.5c0-4.4-3.8-8.1-8.4-8.1
						c-4.6,0-8.4,3.6-8.4,8.1c0,4.4,3.8,8.1,8.4,8.1c0.3,0,0.5,0.2,0.5,0.5v3.4C33.8,39.7,33.6,39.9,33.3,39.9z M4.3,27.1l-3.9,0
						c-0.1,0-0.3-0.1-0.3-0.2C0,26.9,0,26.7,0,26.6c0.8-3.7,2.3-7.3,4.4-10.6c2-3.2,4.5-6,7.5-8.4c3-2.4,6.3-4.3,9.9-5.6
						c3.7-1.3,7.6-2,11.6-2c4,0,7.9,0.7,11.6,2c3.6,1.3,6.9,3.2,9.9,5.6c3,2.4,5.5,5.2,7.5,8.4c2,3.3,3.5,6.8,4.4,10.6
						c0,0.1,0,0.3-0.1,0.4c-0.1,0.1-0.2,0.2-0.3,0.2h-3.9c-0.2,0-0.4-0.1-0.4-0.3c-0.8-3.1-2.1-6.1-3.9-8.8c-1.8-2.7-3.9-5-6.5-7
						c-2.5-2-5.4-3.6-8.4-4.6c-3.2-1.1-6.5-1.7-9.8-1.7c-3.4,0-6.7,0.6-9.8,1.7c-3,1.1-5.9,2.6-8.4,4.6c-2.5,2-4.7,4.4-6.5,7
						c-1.8,2.7-3.1,5.7-3.9,8.8C4.7,27,4.5,27.1,4.3,27.1z"/>
				</g>
			</g>
			<g id="Union_172-4" transform="translate(7.729 7.048)">
				<path class="st2" d="M21.7,66c-7.2-2.6-13.3-7.5-17.4-14c-2-3.2-3.5-6.8-4.4-10.6c0-0.1,0-0.3,0.1-0.4c0.1-0.1,0.2-0.2,0.3-0.2
					h3.9c0.2,0,0.4,0.1,0.4,0.3c0.8,3.1,2.1,6.1,3.9,8.8c9,13.6,27.3,17.5,40.9,8.5c3.4-2.2,6.3-5.1,8.5-8.5
					c1.8-2.7,3.1-5.7,3.9-8.8c0-0.2,0.2-0.3,0.4-0.3h3.9c0.2,0,0.4,0.2,0.4,0.4c0,0,0,0.1,0,0.1c-0.8,3.7-2.3,7.3-4.4,10.6
					C53.8,65.6,36.9,71.4,21.7,66z M31.6,57.7c-0.3,0-0.5-0.2-0.5-0.5l0,0v-4.5c-2.9-0.5-5.5-1.9-7.5-4.1c-1-1.1-1.8-2.4-2.4-3.7
					c-0.6-1.4-0.9-2.9-0.9-4.5c0-0.3,0.2-0.5,0.5-0.5c0,0,0,0,0,0h3.6c0.3,0,0.5,0.2,0.5,0.5c0,0,0,0,0,0c-0.2,4.6,3.4,8.5,8,8.7
					c4.6,0.2,8.5-3.4,8.7-8c0.2-4.6-3.4-8.5-8-8.7c-0.1,0-0.2,0-0.3,0c-0.3,0-0.5-0.2-0.5-0.5c0,0,0,0,0,0v-3.4
					c0-0.3,0.2-0.5,0.5-0.5c0,0,0,0,0,0c7-0.1,12.8,5.4,12.9,12.4c0,0,0,0,0,0c0,1.5-0.3,3-0.8,4.4c-0.5,1.4-1.3,2.6-2.3,3.7
					c-2,2.1-4.6,3.6-7.4,4.1v4.6c0,0.3-0.2,0.5-0.5,0.5c0,0,0,0,0,0L31.6,57.7z M20.4,27.4c0-1.5,0.3-3,0.9-4.5
					c0.6-1.4,1.4-2.6,2.4-3.7c2-2.2,4.6-3.6,7.5-4.1v-4.3c0-0.3,0.2-0.5,0.5-0.5c0,0,0,0,0,0h3.5c0.3,0,0.5,0.2,0.5,0.5c0,0,0,0,0,0
					v4.3c2.9,0.5,5.5,1.9,7.4,4.1c1,1.1,1.8,2.4,2.3,3.7c0.6,1.4,0.9,2.9,0.9,4.4c0,0.3-0.2,0.5-0.5,0.5h0h-3.6
					c-0.3,0-0.5-0.2-0.5-0.5c0,0,0,0,0,0c-0.2-4.6-4.1-8.2-8.7-8c-4.4,0.2-7.9,3.7-8,8c0.1,4.5,3.9,8.1,8.4,8c0.3,0,0.5,0.2,0.5,0.5
					c0,0,0,0,0,0v3.4c0,0.3-0.2,0.5-0.5,0.5c0,0,0,0,0,0C26.3,40,20.5,34.4,20.4,27.4L20.4,27.4z M0.4,27.1c-0.1,0-0.3-0.1-0.3-0.2
					C0,26.9,0,26.7,0,26.6c0.8-3.7,2.3-7.3,4.4-10.6C14.4,0,35.5-4.8,51.5,5.2C55.9,8,59.6,11.7,62.3,16c2,3.3,3.5,6.8,4.4,10.6
					c0.1,0.2-0.1,0.5-0.3,0.5c0,0-0.1,0-0.1,0h-3.9c-0.2,0-0.4-0.1-0.4-0.3c-0.8-3.1-2.1-6.1-3.9-8.8c-9-13.6-27.3-17.5-40.9-8.5
					c-3.4,2.2-6.3,5.1-8.5,8.5c-1.8,2.7-3.1,5.7-3.9,8.8c0,0.2-0.2,0.3-0.4,0.3L0.4,27.1z"/>
				<path class="st2" d="M33.3,66c3.7,0,7.4-0.6,10.9-1.9c3.4-1.2,6.5-3,9.3-5.3c2.8-2.2,5.2-4.9,7-7.9c1.6-2.5,2.8-5.2,3.6-8h-0.7
					c-0.9,2.9-2.2,5.7-3.8,8.3c-1.9,2.9-4.2,5.4-6.9,7.5c-2.7,2.1-5.7,3.8-9,5c-3.4,1.2-6.9,1.8-10.5,1.8c-3.6,0-7.1-0.6-10.5-1.8
					c-3.3-1.1-6.3-2.8-9-5c-2.7-2.1-5-4.6-6.9-7.5c-1.7-2.6-3-5.3-3.8-8.3H2.5c0.8,2.8,2,5.5,3.6,8c1.9,3,4.3,5.7,7,7.9
					c2.8,2.3,5.9,4,9.3,5.3C25.9,65.4,29.6,66,33.3,66 M33.6,55.7v-4.7l1.7-0.3c2.4-0.4,4.7-1.6,6.3-3.4c0.8-0.9,1.5-2,2-3.1
					c0.5-1.1,0.7-2.3,0.7-3.6l0,0l0-0.1c0-5.3-4.1-9.6-9.4-10.3v0.4c5,0.7,8.9,4.9,8.9,9.9c0,5.5-4.7,10-10.4,10
					c-5.2,0-9.5-3.7-10.3-8.5h-0.5c0.1,0.8,0.3,1.5,0.6,2.2c0.5,1.1,1.1,2.2,2,3.1c1.6,1.8,3.9,3,6.3,3.4l1.7,0.3v4.7H33.6
					 M31.8,37.8v-0.4c-5-0.7-8.9-4.9-8.9-9.9c0-5.5,4.7-10.1,10.4-10.1c5.2,0,9.5,3.7,10.3,8.5h0.5c-0.1-0.7-0.3-1.5-0.6-2.2
					c-0.5-1.1-1.1-2.2-2-3.1c-1.6-1.8-3.9-3-6.3-3.4l-1.7-0.3v-4.5h-0.5v4.5l-1.7,0.3c-2.4,0.4-4.7,1.6-6.3,3.4
					c-0.9,0.9-1.5,2-2,3.1c-0.5,1.2-0.7,2.4-0.7,3.7C22.4,32.7,26.5,37.1,31.8,37.8 M3.1,25.1c0.9-2.9,2.2-5.7,3.8-8.3
					c1.9-2.9,4.2-5.4,6.9-7.5c2.7-2.1,5.8-3.8,9-5c3.4-1.2,6.9-1.8,10.5-1.8c3.6,0,7.1,0.6,10.5,1.8c3.3,1.1,6.3,2.8,9,5
					c2.7,2.1,5,4.6,6.9,7.5c1.7,2.6,3,5.3,3.8,8.3h0.7c-0.8-2.8-2-5.5-3.6-8c-1.9-3-4.3-5.7-7-7.9c-2.8-2.3-5.9-4-9.3-5.3
					C40.7,2.6,37.1,2,33.3,2c-3.7,0-7.4,0.6-10.9,1.9c-3.4,1.2-6.5,3-9.3,5.3c-2.8,2.2-5.1,4.9-7,7.9c-1.6,2.5-2.8,5.2-3.6,8
					L3.1,25.1 M33.3,68c-4,0-7.9-0.7-11.6-2c-3.6-1.3-6.9-3.2-9.9-5.6c-3-2.4-5.5-5.2-7.5-8.4C2.3,48.7,0.8,45.2,0,41.4
					c0-0.1,0-0.3,0.1-0.4c0.1-0.1,0.2-0.2,0.3-0.2h3.9c0.2,0,0.4,0.1,0.4,0.3c0.8,3.1,2.1,6.1,3.9,8.8c1.8,2.7,3.9,5,6.5,7
					c2.5,2,5.4,3.6,8.4,4.6c3.2,1.1,6.5,1.7,9.8,1.7c3.4,0,6.7-0.6,9.8-1.7c3-1.1,5.9-2.6,8.4-4.6c2.5-2,4.7-4.4,6.5-7
					c1.8-2.7,3.1-5.7,3.9-8.8c0-0.2,0.2-0.3,0.4-0.3h3.9c0.1,0,0.3,0.1,0.3,0.2c0.1,0.1,0.1,0.2,0.1,0.4c-0.8,3.7-2.3,7.3-4.4,10.6
					c-2,3.2-4.5,6-7.5,8.4c-3,2.4-6.3,4.3-9.9,5.6C41.2,67.3,37.3,68,33.3,68z M35.1,57.7h-3.5c-0.3,0-0.5-0.2-0.5-0.5v-4.6
					c-2.9-0.5-5.5-1.9-7.5-4.1c-1-1.1-1.8-2.4-2.4-3.7c-0.6-1.4-0.9-2.9-0.9-4.5c0-0.3,0.2-0.5,0.5-0.5h3.6c0.3,0,0.5,0.2,0.5,0.5
					c0,4.4,3.8,8,8.4,8c4.6,0,8.4-3.6,8.4-8c0-4.4-3.8-8.1-8.4-8.1c-0.3,0-0.5-0.2-0.5-0.5v-3.4c0-0.3,0.2-0.5,0.5-0.5
					c7.1,0,12.9,5.6,12.9,12.4c0,0,0,0,0,0c0,1.5-0.3,3-0.9,4.4c-0.5,1.4-1.3,2.6-2.3,3.7c-1.9,2.1-4.6,3.6-7.4,4.1v4.6
					C35.6,57.4,35.4,57.7,35.1,57.7z M33.3,39.9c-7.1,0-12.9-5.6-12.9-12.4c0-1.5,0.3-3,0.9-4.5c0.6-1.4,1.3-2.6,2.4-3.7
					c2-2.1,4.6-3.6,7.5-4.1v-4.3c0-0.3,0.2-0.5,0.5-0.5h3.5c0.3,0,0.5,0.2,0.5,0.5v4.3c2.9,0.5,5.5,1.9,7.4,4.1
					c1,1.1,1.8,2.4,2.3,3.7c0.6,1.4,0.9,2.9,0.9,4.4c0,0.3-0.2,0.5-0.5,0.5h-3.6c-0.3,0-0.5-0.2-0.5-0.5c0-4.4-3.8-8.1-8.4-8.1
					c-4.6,0-8.4,3.6-8.4,8.1c0,4.4,3.8,8.1,8.4,8.1c0.3,0,0.5,0.2,0.5,0.5v3.4C33.8,39.7,33.6,39.9,33.3,39.9z M4.3,27.1l-3.9,0
					c-0.1,0-0.3-0.1-0.3-0.2C0,26.9,0,26.7,0,26.6c0.8-3.7,2.3-7.3,4.4-10.6c2-3.2,4.5-6,7.5-8.4c3-2.4,6.3-4.3,9.9-5.6
					c3.7-1.3,7.6-2,11.6-2c4,0,7.9,0.7,11.6,2c3.6,1.3,6.9,3.2,9.9,5.6c3,2.4,5.5,5.2,7.5,8.4c2,3.3,3.5,6.8,4.4,10.6
					c0,0.1,0,0.3-0.1,0.4c-0.1,0.1-0.2,0.2-0.3,0.2h-3.9c-0.2,0-0.4-0.1-0.4-0.3c-0.8-3.1-2.1-6.1-3.9-8.8c-1.8-2.7-3.9-5-6.5-7
					c-2.5-2-5.4-3.6-8.4-4.6c-3.2-1.1-6.5-1.7-9.8-1.7c-3.4,0-6.7,0.6-9.8,1.7c-3,1.1-5.9,2.6-8.4,4.6c-2.5,2-4.7,4.4-6.5,7
					c-1.8,2.7-3.1,5.7-3.9,8.8C4.7,27,4.5,27.1,4.3,27.1z"/>
			</g>
		</g>
	</g>
</g>
</svg>
